<svg width="32" height="32" viewBox="0 0 32 32" fill="none" xmlns="http://www.w3.org/2000/svg">
<path fill-rule="evenodd" clip-rule="evenodd" d="M18.3037 7.11817C17.8545 6.31858 16.9984 5.78125 16.0184 5.78125C15.0397 5.78125 14.1846 6.31716 13.7349 7.115C11.3311 8.03564 9.6215 10.3662 9.6215 13.0915V15.8115C9.6215 16.0081 9.57675 16.2995 9.49 16.612C9.40354 16.9235 9.29197 17.1961 9.19157 17.365C9.19132 17.3654 9.19107 17.3658 9.19082 17.3662L8.11015 19.1611C7.66999 19.8926 7.57692 20.7158 7.84817 21.4484C8.11909 22.18 8.72453 22.7438 9.5287 23.016L9.53148 23.0169C10.5498 23.3571 11.5875 23.6151 12.6353 23.7907C12.8145 24.3164 13.1119 24.789 13.4929 25.1699C14.1356 25.8126 15.0392 26.2178 16.0185 26.2178C17.5857 26.2178 18.9239 25.1982 19.4033 23.7889C20.447 23.6134 21.4807 23.3561 22.4951 23.0173C24.0922 22.4886 24.7849 20.6066 23.9181 19.1621L22.8392 17.37C22.7409 17.1979 22.6316 16.9242 22.5466 16.6143C22.4604 16.3002 22.4156 16.0084 22.4156 15.8115V13.0915C22.4156 10.3755 20.703 8.04239 18.3037 7.11817ZM14.5448 8.42077C15.2343 8.22896 15.9772 8.17488 16.763 8.27311L16.7658 8.27345C16.9937 8.30107 17.2193 8.347 17.4432 8.40737C19.4466 9.0218 20.9156 10.8947 20.9156 13.0915V15.8115C20.9156 16.1886 20.9932 16.6215 21.1 17.011C21.207 17.4013 21.3598 17.8074 21.543 18.1251L21.5465 18.1311L22.6319 19.9338C22.632 19.934 22.6321 19.9341 22.6322 19.9343C23.0072 20.56 22.7027 21.3688 22.0232 21.5935L22.0209 21.5942C18.1192 22.8978 13.9101 22.898 10.0083 21.5947C9.58974 21.4527 9.35321 21.1932 9.25483 20.9275C9.15669 20.6624 9.16723 20.3138 9.3952 19.9348C9.39516 19.9348 9.39524 19.9347 9.3952 19.9348L10.4776 18.1371L10.4792 18.1343C10.6704 17.8136 10.8267 17.4045 10.9353 17.0132C11.0439 16.6222 11.1215 16.1889 11.1215 15.8115V13.0915C11.1215 10.9038 12.562 9.0474 14.5448 8.42077ZM17.5721 24.0125C16.5373 24.0917 15.4982 24.0919 14.4634 24.0131C14.4925 24.0462 14.5225 24.0782 14.5535 24.1093C14.9273 24.483 15.4542 24.7178 16.0185 24.7178C16.6347 24.7178 17.1911 24.4441 17.5721 24.0125Z" fill="#4C6B22"/>
</svg>
