<svg width="14" height="14" viewBox="0 0 14 14" fill="none" xmlns="http://www.w3.org/2000/svg">
<path d="M2.97917 10.078L0.123837 12.9326L1.06717 13.876L3.92184 11.0206C4.98401 11.8721 6.30517 12.3353 7.6665 12.3333C10.9785 12.3333 13.6665 9.64531 13.6665 6.33331C13.6665 3.02131 10.9785 0.333313 7.6665 0.333313C4.3545 0.333313 1.6665 3.02131 1.6665 6.33331C1.66457 7.69465 2.12769 9.01581 2.97917 10.078ZM4.3165 9.58331C3.47043 8.71324 2.99793 7.54693 2.99984 6.33331C2.99984 3.75465 5.0885 1.66665 7.6665 1.66665C10.2452 1.66665 12.3332 3.75465 12.3332 6.33331C12.3332 8.91131 10.2452 11 7.6665 11C6.45288 11.0019 5.28658 10.5294 4.4165 9.68331L4.3165 9.58331V9.58331Z" fill="#A6B1B8"/>
</svg>
