<svg width="13" height="12" viewBox="0 0 13 12" fill="none" xmlns="http://www.w3.org/2000/svg">
<path d="M10.2851 3.67299L4.54674 0.819234C0.692094 -1.10105 -0.889989 0.472516 1.04069 4.30642L1.62391 5.46659C1.79151 5.80664 1.79151 6.20003 1.62391 6.54008L1.04069 7.69358C-0.889989 11.5275 0.68539 13.1011 4.54674 11.1808L10.2851 8.32701C12.8594 7.04682 12.8594 4.95318 10.2851 3.67299ZM8.11984 6.50007H4.49982C4.22496 6.50007 3.99704 6.27337 3.99704 6C3.99704 5.72663 4.22496 5.49993 4.49982 5.49993H8.11984C8.39469 5.49993 8.62262 5.72663 8.62262 6C8.62262 6.27337 8.39469 6.50007 8.11984 6.50007Z" fill="white"/>
</svg>
