<svg width="25" height="24" viewBox="0 0 25 24" fill="none" xmlns="http://www.w3.org/2000/svg">
<path d="M9.49963 10.3791C10.8141 10.3791 11.8796 9.31358 11.8796 7.99914C11.8796 6.6847 10.8141 5.61914 9.49963 5.61914C8.18519 5.61914 7.11963 6.6847 7.11963 7.99914C7.11963 9.31358 8.18519 10.3791 9.49963 10.3791Z" fill="#424341"/>
<path d="M16.6895 2H8.30951C4.66951 2 2.49951 4.17 2.49951 7.81V16.19C2.49951 17.28 2.68951 18.23 3.05951 19.03C3.91951 20.93 5.75951 22 8.30951 22H16.6895C20.3295 22 22.4995 19.83 22.4995 16.19V13.9V7.81C22.4995 4.17 20.3295 2 16.6895 2ZM20.8695 12.5C20.0895 11.83 18.8295 11.83 18.0495 12.5L13.8895 16.07C13.1095 16.74 11.8495 16.74 11.0695 16.07L10.7295 15.79C10.0195 15.17 8.88951 15.11 8.08951 15.65L4.34951 18.16C4.12951 17.6 3.99951 16.95 3.99951 16.19V7.81C3.99951 4.99 5.48951 3.5 8.30951 3.5H16.6895C19.5095 3.5 20.9995 4.99 20.9995 7.81V12.61L20.8695 12.5Z" fill="#424341"/>
</svg>
