<svg width="48" height="48" fill="none" xmlns="http://www.w3.org/2000/svg"><path d="M48 24C48 10.745 37.255 0 24 0S0 10.745 0 24s10.745 24 24 24 24-10.745 24-24z" fill="#fff"/><path fill-rule="evenodd" clip-rule="evenodd" d="M35.745 24.273c0-.851-.076-1.67-.218-2.455H24.225v4.642h6.458a5.52 5.52 0 01-2.395 3.622v3.01h3.879c2.269-2.088 3.578-5.165 3.578-8.82z" fill="#4285F4"/><path fill-rule="evenodd" clip-rule="evenodd" d="M24.224 36c3.24 0 5.957-1.075 7.942-2.907l-3.878-3.011c-1.075.72-2.45 1.145-4.064 1.145-3.125 0-5.77-2.11-6.714-4.947H13.5v3.109a11.996 11.996 0 0010.724 6.61z" fill="#34A853"/><path fill-rule="evenodd" clip-rule="evenodd" d="M17.51 26.28a7.213 7.213 0 01-.376-2.28c0-.791.136-1.56.376-2.28v-3.11h-4.009A11.996 11.996 0 0012.225 24c0 1.936.463 3.769 1.276 5.389l4.01-3.11z" fill="#FBBC05"/><path fill-rule="evenodd" clip-rule="evenodd" d="M24.224 16.773c1.762 0 3.344.605 4.588 1.794l3.442-3.441C30.175 13.189 27.459 12 24.224 12c-4.69 0-8.749 2.69-10.723 6.61l4.009 3.11c.943-2.836 3.589-4.947 6.714-4.947z" fill="#EA4335"/></svg>