<svg width="46" height="46" fill="none" xmlns="http://www.w3.org/2000/svg"><path fill-rule="evenodd" clip-rule="evenodd" d="M27.608 5.237a5.235 5.235 0 00-4.57-2.674 5.235 5.235 0 00-4.567 2.668c-4.808 1.841-8.227 6.502-8.227 11.953v5.44c0 .393-.09.976-.263 1.601-.173.623-.396 1.168-.597 1.506l-.002.002-2.161 3.59c-.88 1.463-1.066 3.11-.524 4.575.542 1.463 1.753 2.59 3.361 3.135l.006.002a40.971 40.971 0 006.207 1.548 7.19 7.19 0 001.715 2.758 7.167 7.167 0 005.052 2.096c3.134 0 5.81-2.04 6.77-4.858a40.958 40.958 0 006.183-1.543c3.194-1.058 4.58-4.822 2.846-7.71l-2.158-3.585c-.197-.344-.415-.892-.585-1.511-.172-.629-.262-1.212-.262-1.606v-5.44c0-5.432-3.425-10.098-8.224-11.947zM20.09 7.843c1.38-.384 2.865-.492 4.437-.296h.005c.456.056.907.148 1.355.269 4.007 1.229 6.945 4.974 6.945 9.368v5.44c0 .754.155 1.62.369 2.399.214.78.52 1.593.886 2.228l.007.012 2.17 3.606h.001c.75 1.252.141 2.87-1.218 3.319l-.005.001a37.881 37.881 0 01-24.025.001c-.837-.284-1.31-.803-1.507-1.334-.196-.53-.175-1.228.281-1.986l2.165-3.595.003-.005c.383-.642.695-1.46.912-2.243.217-.782.373-1.648.373-2.403v-5.44c0-4.376 2.88-8.088 6.846-9.341zm6.055 31.183c-2.07.158-4.148.159-6.218.001a4.167 4.167 0 003.11 1.41 4.142 4.142 0 003.108-1.411z" fill="#292D32"/></svg>