<svg width="48" height="48" fill="none" xmlns="http://www.w3.org/2000/svg"><circle cx="24" cy="24" r="24" fill="#7294C7"/><path d="M35.767 30.138c0-.1-.1-.1-.1-.2-.398-.796-1.294-1.792-2.49-2.888-.598-.498-.896-.897-1.096-1.096-.299-.399-.299-.698-.199-1.096.1-.299.498-.797 1.195-1.694.399-.498.598-.797.897-1.096 1.495-1.992 2.192-3.287 1.993-3.885l-.1-.1c-.1-.1-.2-.2-.398-.2-.2-.099-.499-.099-.797 0h-4.484l-.1.1c-.099.1-.099.1-.099.2-.399 1.096-.897 1.992-1.395 2.989-.299.498-.598.996-.896 1.394-.3.399-.498.698-.698.897-.199.2-.398.299-.498.498-.1.1-.299.2-.299.1-.1 0-.199 0-.199-.1l-.299-.299c-.1-.1-.1-.299-.2-.498v-4.981c0-.1-.099-.3-.099-.399l-.299-.299c-.1-.1-.299-.1-.398-.199a8.93 8.93 0 00-1.793-.2c-1.595 0-2.69.1-3.089.3-.2.1-.398.199-.498.398-.2.2-.2.3-.1.3.498.099.897.298 1.096.597l.1.2c.1.099.1.298.2.597.099.299.099.598.099.996v1.594c0 .498-.1.797-.1 1.096 0 .3-.1.498-.2.598-.099.2-.099.299-.198.299 0 0 0 .1-.1.1s-.2.1-.399.1c-.1 0-.298-.1-.398-.2a1.2 1.2 0 01-.498-.498c-.2-.2-.399-.498-.598-.897-.2-.399-.498-.797-.697-1.395l-.2-.398c-.1-.2-.298-.598-.498-1.096-.199-.498-.398-.897-.598-1.395-.1-.2-.199-.299-.298-.398h-.1s-.1-.1-.2-.1c-.099 0-.198-.1-.298-.1h-3.587c-.398 0-.598.1-.697.2l-.1.1v.198c0 .1 0 .2.1.399.498 1.195 1.096 2.391 1.694 3.586.597 1.096 1.195 2.093 1.594 2.79.498.698.896 1.395 1.394 1.993.498.597.797.996.897 1.195l.399.399.298.299c.2.199.498.498.897.797.398.299.897.597 1.395.896.498.3 1.096.498 1.694.698.697.199 1.295.299 1.892.199h1.495c.299 0 .498-.1.697-.299l.1-.1c0-.1.1-.1.1-.199v-.398c0-.399 0-.698.1-.997.099-.299.099-.498.198-.697.1-.2.2-.299.3-.399l.198-.199h.1c.2-.1.498 0 .698.2.298.199.597.498.797.796.199.3.498.598.896.997.399.398.698.697.897.797l.299.199c.199.1.398.2.697.299.299.1.498.1.697.1l3.388-.1c.299 0 .598-.1.797-.2.2-.099.299-.199.299-.398v-.398c-.2-.2-.2-.3-.2-.399z" fill="#fff"/></svg>