<svg width="177" height="159" viewBox="0 0 177 159" fill="none" xmlns="http://www.w3.org/2000/svg">
<g clip-path="url(#clip0_1640_3541)">
<path d="M111.423 46.6756C111.399 47.0029 111.528 47.5056 111.504 47.8329C111.82 50.3227 112.299 52.8243 113.304 54.8699C113.445 55.2089 113.585 55.5479 113.737 55.7233C115.911 59.8263 119.663 62.5618 124.526 63.5672C124.853 63.5906 125.18 63.614 125.496 63.801C126.63 64.0466 127.787 63.9648 129.096 64.0583C130.417 63.9882 131.575 63.9065 132.743 63.661C133.082 63.5208 133.573 63.5559 133.912 63.4156C139.278 61.9897 144.597 58.9156 148.863 54.4504C149.214 54.1465 149.565 53.8426 149.752 53.527C151.879 51.3762 153.703 48.8747 155.211 46.1862C155.41 45.707 155.597 45.3914 155.959 44.9238C157.467 42.2353 158.496 39.3481 159.197 36.4375C159.899 33.5268 160.261 30.7565 160.121 28.1147C160.145 27.7874 160.016 27.2847 160.039 26.9574C159.724 24.4676 159.245 21.966 158.239 19.9203C158.099 19.5814 157.959 19.2424 157.807 19.067C155.633 14.964 151.881 12.2285 147.018 11.2231C146.691 11.1997 146.363 11.1763 146.048 10.9892C144.914 10.7437 143.757 10.8255 142.447 10.732C141.127 10.802 139.969 10.8838 138.637 11.1176C138.298 11.2578 137.807 11.2227 137.468 11.363C132.102 12.7889 126.947 15.8747 122.517 20.3282C122.166 20.6321 121.815 20.936 121.628 21.2516C119.501 23.4024 117.677 25.9039 116.169 28.5924C115.97 29.0716 115.783 29.3872 115.421 29.8548C113.913 32.5433 112.884 35.4305 112.019 38.3295C111.481 41.2518 111.271 44.1975 111.423 46.6756Z" fill="url(#paint0_linear_1640_3541)"/>
<path d="M116.425 57.2313C116.612 56.9157 116.799 56.6001 116.647 56.4247C116.051 55.5597 115.455 54.6947 115.034 53.6777C114.894 53.3387 114.754 52.9997 114.602 52.8243C114.614 52.6607 114.45 52.649 114.286 52.6373C114.123 52.6256 114.123 52.6256 113.947 52.7775C113.608 52.9178 113.573 53.4088 113.562 53.5724C113.702 53.9114 113.842 54.2504 113.982 54.5894C114.403 55.6064 114.988 56.6351 115.747 57.5118C115.736 57.6755 115.899 57.6871 116.063 57.6988C116.086 57.3715 116.25 57.3832 116.425 57.2313Z" fill="url(#paint1_linear_1640_3541)"/>
<path d="M125.416 18.8905C125.24 19.0424 125.042 19.5217 125.194 19.697C125.182 19.8607 125.346 19.8724 125.509 19.8841C125.673 19.8958 125.837 19.9075 125.848 19.7438C127.251 18.5282 128.806 17.4879 130.349 16.6112C130.688 16.471 130.875 16.1553 130.735 15.8164C130.746 15.6527 130.594 15.4774 130.419 15.6293C130.255 15.6176 130.255 15.6176 130.08 15.7696C128.385 16.4709 126.819 17.6748 125.416 18.8905Z" fill="url(#paint2_linear_1640_3541)"/>
<path d="M152.185 14.882C151.998 15.1976 151.974 15.5249 152.126 15.7002C153.225 16.4367 154.137 17.4888 155.048 18.5409C155.037 18.7045 155.2 18.7162 155.364 18.7279C155.528 18.7396 155.703 18.5876 155.703 18.5876C155.89 18.272 156.077 17.9564 155.925 17.7811C155.025 16.5654 153.938 15.6652 152.851 14.7651L152.687 14.7534C152.535 14.5781 152.36 14.73 152.185 14.882Z" fill="url(#paint3_linear_1640_3541)"/>
<path d="M157.468 21.51C157.129 21.6503 157.094 22.1412 157.082 22.3049C157.643 23.6609 158.029 25.1688 158.251 26.6651C158.239 26.8287 158.391 27.0041 158.555 27.0157L158.718 27.0274C159.057 26.8872 159.245 26.5716 159.104 26.2326C158.894 24.5727 158.508 23.0647 157.947 21.7088C157.959 21.5451 157.795 21.5334 157.632 21.5217C157.643 21.3581 157.643 21.3581 157.468 21.51Z" fill="url(#paint4_linear_1640_3541)"/>
<path d="M117.549 27.704C117.362 28.0196 117.338 28.3469 117.665 28.3703L117.829 28.382C117.993 28.3937 118.168 28.2417 118.343 28.0898C119.442 26.5235 120.541 24.9571 121.792 23.5661C121.979 23.2505 122.002 22.9232 121.85 22.7479C121.85 22.7479 121.698 22.5725 121.523 22.7245C121.359 22.7128 121.184 22.8647 121.009 23.0167C119.91 24.583 118.647 26.1377 117.549 27.704Z" fill="url(#paint5_linear_1640_3541)"/>
<path d="M141.604 59.3597C141.943 59.2194 142.13 58.9038 141.99 58.5648C142.002 58.4012 141.85 58.2258 141.674 58.3778C141.511 58.3661 141.511 58.3661 141.335 58.518C139.792 59.3947 138.249 60.2713 136.566 60.809C136.227 60.9492 136.04 61.2649 136.017 61.5922C136.005 61.7558 136.157 61.9311 136.32 61.9428L136.484 61.9545C138.354 61.1013 140.061 60.2363 141.604 59.3597Z" fill="url(#paint6_linear_1640_3541)"/>
<path d="M123.322 62.0008C123.509 61.6852 123.369 61.3462 123.205 61.3345C121.919 60.9137 120.657 60.1655 119.558 59.429L119.394 59.4173C119.231 59.4056 119.055 59.5576 118.88 59.7096C118.693 60.0252 118.67 60.3525 118.821 60.5278C119.909 61.4279 121.183 62.0124 122.62 62.6087L122.784 62.6203C122.971 62.3047 123.146 62.1528 123.322 62.0008Z" fill="url(#paint7_linear_1640_3541)"/>
<path d="M112.895 49.0836C113.234 48.9434 113.421 48.6278 113.281 48.2888C113.305 47.9615 113.176 47.4588 113.199 47.1315C113.118 45.9743 113.048 44.6534 113.129 43.5078C113.153 43.1805 113.001 43.0052 112.662 43.1454C112.662 43.1454 112.662 43.1454 112.498 43.1337C112.159 43.274 111.972 43.5896 111.96 43.7533C111.867 45.0625 111.937 46.3834 112.019 47.5406C111.984 48.0316 112.124 48.3706 112.089 48.8615C112.077 49.0252 112.229 49.2005 112.393 49.2122C112.72 49.2356 112.732 49.0719 112.895 49.0836Z" fill="url(#paint8_linear_1640_3541)"/>
<path d="M156.836 41.8612C157.023 41.5456 156.883 41.2066 156.555 41.1832C156.555 41.1832 156.555 41.1832 156.392 41.1715C156.228 41.1598 155.889 41.3001 155.866 41.6274C155.281 42.9015 154.697 44.1756 153.949 45.4381C153.761 45.7537 153.563 46.2329 153.212 46.5368C153.025 46.8524 153.002 47.1797 153.329 47.2031L153.493 47.2148C153.656 47.2265 153.832 47.0746 154.007 46.9226C154.206 46.4434 154.556 46.1394 154.755 45.6602C155.655 44.5731 156.24 43.299 156.836 41.8612Z" fill="url(#paint9_linear_1640_3541)"/>
<path d="M143.99 12.1581C143.967 12.4854 143.944 12.8127 144.271 12.8361C144.598 12.8595 144.926 12.8829 145.416 12.918C146.562 12.9998 147.521 13.3973 148.491 13.6311L148.654 13.6428C148.818 13.6545 149.157 13.5142 149.18 13.1869C149.367 12.8713 149.227 12.5323 149.064 12.5206C148.105 12.1232 146.971 11.8777 145.826 11.7958C145.498 11.7724 145.007 11.7373 144.68 11.7139C144.353 11.6905 144.177 11.8425 143.99 12.1581Z" fill="url(#paint10_linear_1640_3541)"/>
<path d="M135.036 13.163C134.697 13.3033 134.51 13.6189 134.487 13.9462C134.475 14.1099 134.627 14.2852 134.791 14.2969L134.954 14.3086C136.135 13.8995 137.316 13.4904 138.485 13.245C138.824 13.1047 139.315 13.1398 139.654 12.9996C139.981 13.0229 140.168 12.7073 140.191 12.38C140.215 12.0527 140.063 11.8774 139.899 11.8657C139.56 12.006 139.069 11.9709 138.73 12.1111C137.398 12.3449 136.217 12.754 135.036 13.163Z" fill="url(#paint11_linear_1640_3541)"/>
<path d="M114.871 32.9407C114.088 34.6941 113.469 36.4592 113.001 38.3996C112.978 38.7269 113.13 38.9022 113.293 38.9139C113.621 38.9373 113.808 38.6217 113.995 38.3061C114.451 36.5293 115.07 34.7643 115.842 33.1745C116.029 32.8589 115.888 32.5199 115.561 32.4965C115.561 32.4965 115.561 32.4965 115.398 32.4849C115.234 32.4732 114.883 32.7771 114.871 32.9407Z" fill="url(#paint12_linear_1640_3541)"/>
<path d="M159.104 30.8382C158.765 30.9785 158.578 31.2941 158.566 31.4578C158.449 33.0943 158.157 34.8827 157.713 36.4958C157.689 36.8231 157.841 36.9985 158.005 37.0102C158.332 37.0336 158.519 36.718 158.706 36.4024C159.162 34.6256 159.455 32.8371 159.572 31.2006C159.595 30.8733 159.443 30.698 159.104 30.8382C159.116 30.6746 159.116 30.6746 159.104 30.8382Z" fill="url(#paint13_linear_1640_3541)"/>
<path d="M131.797 63.0999C132.124 63.1233 132.311 62.8076 132.334 62.4803C132.358 62.153 132.206 61.9777 132.042 61.966C131.212 62.0712 130.382 62.1764 129.564 62.1179C128.734 62.2231 128.079 62.1763 127.261 62.1178C126.934 62.0944 126.747 62.41 126.56 62.7256C126.373 63.0412 126.513 63.3802 126.84 63.4036C127.659 63.4621 128.313 63.5089 129.143 63.4037C130.137 63.3102 130.967 63.205 131.797 63.0999Z" fill="url(#paint14_linear_1640_3541)"/>
<path d="M145.625 56.0283C145.473 55.853 145.672 55.3737 145.847 55.2218C146.9 54.31 147.952 53.3983 148.852 52.3112C149.202 52.0073 149.553 51.7034 149.752 51.2241C149.927 51.0722 150.103 50.9202 150.266 50.9319C150.43 50.9436 150.43 50.9436 150.594 50.9553C150.745 51.1307 150.722 51.458 150.535 51.7736C150.184 52.0775 149.822 52.545 149.471 52.849C148.407 53.9243 147.344 54.9997 146.292 55.9115C146.116 56.0634 146.116 56.0634 145.953 56.0517C145.777 56.2037 145.614 56.192 145.625 56.0283Z" fill="url(#paint15_linear_1640_3541)"/>
<path d="M124.912 71.9837C124.585 71.9603 124.421 71.9486 124.094 71.9252C123.93 71.9135 123.766 71.9018 123.766 71.9018C123.439 71.8784 122.948 71.8433 122.621 71.8199C122.13 71.7848 121.802 71.7614 121.487 71.5744C121.323 71.5627 120.996 71.5393 120.844 71.364C120.68 71.3523 120.353 71.3289 120.201 71.1535C120.037 71.1418 119.722 70.9548 119.558 70.9431C119.395 70.9314 119.079 70.7444 118.915 70.7327C118.752 70.721 118.6 70.5456 118.436 70.5339C118.272 70.5223 117.957 70.3352 117.793 70.3235C117.629 70.3118 117.477 70.1365 117.314 70.1248C117.162 69.9494 116.835 69.926 116.683 69.7507C116.519 69.739 116.367 69.5637 116.203 69.552C116.051 69.3766 115.724 69.3532 115.572 69.1779C115.409 69.1662 115.257 68.9908 115.093 68.9791C114.941 68.8038 114.614 68.7804 114.462 68.6051C114.298 68.5934 114.31 68.4297 114.146 68.418C113.83 68.231 113.515 68.0439 113.211 67.6932L119.757 72.7667C120.072 72.9537 120.376 73.3044 120.692 73.4914C120.856 73.5031 120.844 73.6668 121.008 73.6785C121.171 73.6902 121.323 73.8655 121.487 73.8772C121.65 73.8889 121.639 74.0526 121.802 74.0643C121.966 74.0759 122.118 74.2513 122.282 74.263C122.434 74.4383 122.761 74.4617 122.913 74.6371C123.077 74.6488 123.228 74.8241 123.392 74.8358C123.392 74.8358 123.556 74.8475 123.544 75.0112C123.708 75.0228 123.86 75.1982 124.023 75.2099C124.187 75.2216 124.339 75.3969 124.503 75.4086C124.666 75.4203 124.982 75.6074 125.146 75.6191C125.309 75.6308 125.461 75.8061 125.625 75.8178L125.788 75.8295C125.952 75.8412 126.116 75.8529 126.268 76.0282C126.431 76.0399 126.747 76.227 126.911 76.2387C127.074 76.2503 127.402 76.2737 127.553 76.4491C127.717 76.4608 128.044 76.4842 128.196 76.6595L128.36 76.6712C128.687 76.6946 129.015 76.718 129.33 76.905C129.658 76.9284 130.149 76.9635 130.476 76.9869C130.639 76.9986 130.803 77.0103 130.803 77.0103C131.13 77.0337 131.294 77.0454 131.621 77.0688L131.785 77.0805C131.949 77.0922 132.112 77.1039 132.44 77.1272C132.603 77.1389 132.603 77.1389 132.767 77.1506C133.094 77.174 133.585 77.2091 133.924 77.0688C134.251 77.0922 134.754 76.9637 135.081 76.9871C135.245 76.9988 135.409 77.0105 135.409 77.0105C135.736 77.0338 135.911 76.8819 136.239 76.9053C136.402 76.917 136.566 76.9287 136.741 76.7767C136.905 76.7884 137.244 76.6481 137.408 76.6598C137.571 76.6715 137.735 76.6832 137.91 76.5313C138.074 76.543 138.238 76.5547 138.249 76.391C138.413 76.4027 138.588 76.2508 138.752 76.2625C139.255 76.1339 139.757 76.0053 140.26 75.8768C140.424 75.8885 140.599 75.7365 140.763 75.7482C141.101 75.6079 141.429 75.6313 141.768 75.4911C141.931 75.5028 142.107 75.3508 142.446 75.2105C142.785 75.0703 142.948 75.082 143.287 74.9417C143.463 74.7898 143.79 74.8132 143.965 74.6612C143.954 74.8248 144.293 74.6846 144.456 74.6963C144.62 74.708 144.795 74.556 144.795 74.556C145.134 74.4158 145.473 74.2755 145.976 74.1469C146.151 73.995 146.315 74.0067 146.49 73.8547C146.829 73.7145 147.168 73.5742 147.507 73.4339C147.683 73.282 147.846 73.2937 148.185 73.1534C148.524 73.0132 148.863 72.8729 149.039 72.7209C149.214 72.569 149.389 72.417 149.717 72.4404C150.091 71.8092 150.43 71.6689 150.605 71.517C150.769 71.5287 150.78 71.365 150.944 71.3767L151.119 71.2248C151.634 70.9326 151.984 70.6287 152.499 70.3364C152.662 70.3481 152.674 70.1845 152.838 70.1962C153.539 69.5884 154.054 69.2961 154.58 68.8403C154.58 68.8403 154.58 68.8403 154.755 68.6883C154.93 68.5364 154.93 68.5364 155.106 68.3844C155.445 68.2441 155.632 67.9285 155.971 67.7883C156.146 67.6363 156.321 67.4844 156.497 67.3324C156.847 67.0285 157.034 66.7129 157.373 66.5726L157.549 66.4207C157.724 66.2687 157.736 66.1051 157.911 65.9531C158.086 65.8012 158.425 65.6609 158.601 65.5089C158.788 65.1933 158.963 65.0414 159.139 64.8894C159.326 64.5738 159.665 64.4336 159.84 64.2816C159.852 64.118 160.015 64.1297 160.027 63.966C160.214 63.6504 160.553 63.5101 160.74 63.1945C161.266 62.7387 161.628 62.2711 162.166 61.6516L162.342 61.4996C162.353 61.336 162.517 61.3477 162.529 61.184C162.704 61.0321 162.891 60.7165 163.066 60.5645C163.242 60.4126 163.417 60.2606 163.604 59.945C163.779 59.793 163.966 59.4774 164.142 59.3255C164.142 59.3255 164.154 59.1618 164.317 59.1735C164.317 59.1735 164.329 59.0099 164.493 59.0216C164.668 58.8696 164.855 58.554 165.03 58.402C165.206 58.2501 165.381 58.0981 165.404 57.7708C165.58 57.6189 165.767 57.3033 165.942 57.1513C165.965 56.824 165.977 56.6604 166.152 56.5084C166.152 56.5084 166.152 56.5084 166.164 56.3448C166.351 56.0291 166.527 55.8772 166.714 55.5616C166.889 55.4096 166.901 55.246 167.076 55.094C167.263 54.7784 167.462 54.2992 167.812 53.9953C167.812 53.9953 167.824 53.8316 167.988 53.8433C168.35 53.3757 168.549 52.8965 168.748 52.4172C168.935 52.1016 169.122 51.786 169.309 51.4704C169.32 51.3068 169.496 51.1548 169.508 50.9911C169.706 50.5119 170.08 49.8807 170.279 49.4014C170.291 49.2378 170.466 49.0858 170.478 48.9222C170.665 48.6066 170.864 48.1273 170.887 47.8L170.899 47.6363C170.91 47.4727 170.91 47.4727 171.086 47.3207C171.284 46.8415 171.483 46.3622 171.682 45.883C171.694 45.7193 171.869 45.5674 171.892 45.2401C172.103 44.5972 172.302 44.1179 172.512 43.475L172.524 43.3113C172.722 42.8321 172.769 42.1775 172.968 41.6982C174.102 37.3381 174.406 33.0832 174.02 29.2725C173.763 25.9644 172.828 22.9368 171.543 20.2131C170.117 17.1505 168.001 14.532 165.511 12.5447L158.965 7.47128C161.619 9.47026 163.571 12.0771 164.997 15.1397C166.282 17.8634 167.054 20.8793 167.475 24.1991C167.86 28.0098 167.568 32.1011 166.422 36.6248C166.223 37.1041 166.177 37.7587 165.978 38.2379L165.966 38.4016C165.756 39.0445 165.545 39.6874 165.335 40.3303C165.323 40.494 165.148 40.6459 165.124 40.9732C164.926 41.4525 164.727 41.9317 164.528 42.411C164.516 42.5746 164.341 42.7266 164.329 42.8902C164.142 43.2058 163.944 43.6851 163.92 44.0124C163.909 44.1761 163.733 44.328 163.722 44.4917C163.523 44.9709 163.149 45.6021 162.95 46.0814C162.763 46.397 162.564 46.8762 162.377 47.1919C162.365 47.3555 162.19 47.5075 162.19 47.5075C161.991 47.9867 161.629 48.4543 161.43 48.9335C161.419 49.0972 161.243 49.2491 161.243 49.2491C161.056 49.5647 160.869 49.8804 160.682 50.196C160.507 50.3479 160.495 50.5116 160.32 50.6635C159.981 50.8038 159.794 51.1194 159.607 51.435C159.431 51.5869 159.42 51.7506 159.244 51.9026C159.057 52.2182 158.882 52.3701 158.695 52.6857C158.519 52.8377 158.508 53.0013 158.321 53.3169C158.145 53.4689 157.958 53.7845 157.783 53.9364C157.608 54.0884 157.432 54.2404 157.409 54.5677C157.234 54.7196 157.047 55.0352 156.871 55.1872C156.696 55.3391 156.52 55.4911 156.333 55.8067C156.158 55.9587 155.971 56.2743 155.796 56.4262C155.62 56.5782 155.609 56.7418 155.433 56.8938C154.907 57.3496 154.533 57.9809 154.007 58.4367C153.656 58.7406 153.306 59.0445 153.119 59.3601C152.943 59.5121 152.756 59.8277 152.581 59.9797C152.406 60.1316 152.219 60.4472 151.88 60.5875C151.704 60.7394 151.517 61.055 151.178 61.1953C151.003 61.3473 150.828 61.4992 150.641 61.8148C150.453 62.1304 150.114 62.2707 149.764 62.5746C149.588 62.7266 149.413 62.8785 149.238 63.0305C148.899 63.1707 148.712 63.4863 148.373 63.6266C148.197 63.7786 148.022 63.9305 147.847 64.0825C147.321 64.5383 146.806 64.8305 146.28 65.2864C146.105 65.4384 146.105 65.4384 145.93 65.5903C145.415 65.8825 145.065 66.1864 144.55 66.4787C144.375 66.6306 144.199 66.7826 144.036 66.7709C143.697 66.9111 143.522 67.0631 143.171 67.367C142.995 67.519 142.82 67.6709 142.493 67.6475C142.154 67.7878 141.815 67.928 141.639 68.08C141.464 68.232 141.3 68.2203 140.961 68.3605C140.622 68.5008 140.283 68.641 139.944 68.7813C139.769 68.9333 139.605 68.9216 139.43 69.0735C139.091 69.2138 138.577 69.506 138.238 69.6463C138.074 69.6346 138.062 69.7982 137.899 69.7865C137.56 69.9268 137.384 70.0787 137.057 70.0553C136.882 70.2073 136.718 70.1956 136.379 70.3359C136.04 70.4761 135.877 70.4644 135.538 70.6047C135.362 70.7566 135.035 70.7333 134.86 70.8852C134.521 71.0255 134.357 71.0138 134.018 71.154C133.843 71.306 133.515 71.2826 133.34 71.4346C132.837 71.5631 132.335 71.6917 131.832 71.8203C131.493 71.9605 131.166 71.9371 130.838 71.9137C130.675 71.902 130.511 71.8903 130.336 72.0423C130.172 72.0306 129.833 72.1709 129.669 72.1592C129.506 72.1475 129.342 72.1358 129.167 72.2877C128.839 72.2643 128.664 72.4163 128.337 72.3929C128.173 72.3812 128.01 72.3695 128.01 72.3695C127.682 72.3461 127.18 72.4747 126.852 72.4513C126.525 72.4279 126.034 72.3928 125.695 72.5331C125.531 72.5214 125.531 72.5214 125.368 72.5097C125.403 72.0187 125.076 71.9954 124.912 71.9837Z" fill="url(#paint16_linear_1640_3541)"/>
<path d="M174.043 28.9452C173.786 25.6371 172.851 22.6095 171.565 19.8859L165.02 14.8124C166.305 17.5361 167.077 20.552 167.497 23.8718L174.043 28.9452Z" fill="url(#paint17_linear_1640_3541)"/>
<path d="M129.856 71.8435C129.692 71.8318 129.529 71.8201 129.353 71.9721C129.026 71.9487 128.851 72.1006 128.523 72.0772C128.36 72.0656 128.196 72.0539 128.196 72.0539C127.869 72.0305 127.366 72.159 127.039 72.1356C126.711 72.1123 126.22 72.0772 125.881 72.2174C125.718 72.2057 125.718 72.2057 125.554 72.194C125.391 72.1823 125.063 72.159 124.9 72.1473C124.572 72.1239 124.409 72.1122 124.081 72.0888C123.918 72.0771 123.754 72.0654 123.754 72.0654C123.427 72.042 122.936 72.0069 122.608 71.9835L129.002 76.8816C129.33 76.905 129.821 76.9401 130.148 76.9635C130.312 76.9752 130.475 76.9868 130.475 76.9868C130.803 77.0102 130.966 77.0219 131.293 77.0453L131.457 77.057C131.621 77.0687 131.784 77.0804 132.112 77.1038C132.275 77.1155 132.275 77.1155 132.439 77.1272C132.766 77.1506 133.257 77.1857 133.596 77.0454C133.924 77.0688 134.426 76.9402 134.754 76.9636C134.917 76.9753 135.081 76.987 135.081 76.987C135.408 77.0104 135.583 76.8584 135.911 76.8818C136.074 76.8935 136.238 76.9052 136.413 76.7533C136.577 76.765 136.916 76.6247 137.08 76.6364C137.243 76.6481 137.407 76.6598 137.582 76.5078C137.746 76.5195 137.91 76.5312 137.921 76.3676C138.085 76.3793 138.26 76.2273 138.424 76.239L131.878 71.1656C131.539 71.3059 131.212 71.2825 130.885 71.2591C130.721 71.2474 130.557 71.2357 130.382 71.3876C130.359 71.7149 130.031 71.6916 129.856 71.8435Z" fill="url(#paint18_linear_1640_3541)"/>
<path d="M160.155 50.6518C159.98 50.8038 159.793 51.1194 159.606 51.435C159.431 51.587 159.419 51.7506 159.244 51.9026C159.057 52.2182 158.881 52.3701 158.694 52.6857C158.519 52.8377 158.507 53.0013 158.32 53.3169C158.145 53.4689 157.958 53.7845 157.782 53.9365C157.607 54.0884 157.432 54.2404 157.408 54.5677C157.233 54.7196 157.046 55.0352 156.871 55.1872C156.695 55.3392 156.52 55.4911 156.333 55.8067C156.158 55.9587 155.97 56.2743 155.795 56.4262C155.62 56.5782 155.608 56.7418 155.433 56.8938C154.907 57.3497 154.533 57.9809 154.007 58.4367L160.739 63.1945C161.266 62.7387 161.628 62.2711 162.166 61.6516L162.341 61.4996C162.353 61.336 162.516 61.3477 162.528 61.184C162.703 61.0321 162.89 60.7165 163.066 60.5645C163.241 60.4126 163.416 60.2606 163.604 59.945C163.779 59.793 163.966 59.4774 164.141 59.3255C164.141 59.3255 164.153 59.1618 164.317 59.1735C164.317 59.1735 164.328 59.0099 164.492 59.0216C164.667 58.8696 164.854 58.554 165.03 58.4021C165.205 58.2501 165.38 58.0982 165.404 57.7708C165.579 57.6189 165.766 57.3033 165.941 57.1513C165.965 56.824 165.977 56.6604 166.152 56.5084C166.152 56.5084 166.152 56.5084 166.164 56.3448C166.351 56.0292 166.526 55.8772 166.713 55.5616C166.888 55.4096 166.9 55.246 167.075 55.094C167.262 54.7784 167.461 54.2992 167.812 53.9953C167.812 53.9953 167.824 53.8316 167.987 53.8433L161.441 48.7699C161.43 48.9336 161.254 49.0855 161.254 49.0855C161.067 49.4011 160.88 49.7167 160.693 50.0323C160.343 50.3362 160.167 50.4882 160.155 50.6518Z" fill="url(#paint19_linear_1640_3541)"/>
<path d="M104.035 51.0822C104.292 54.3903 105.227 57.4179 106.513 60.1416C109.517 66.4422 115.127 70.7909 122.456 71.8081C123.918 72.077 125.566 72.0303 127.05 71.9719C128.699 71.9252 130.358 71.7149 131.866 71.3292C139.885 69.5994 147.788 64.9006 154.03 58.1093C156.695 55.339 159.068 52.0544 161.126 48.5827C163.534 44.8071 165.311 40.6575 166.445 36.2974C167.579 31.9373 167.883 27.6824 167.497 23.8716C167.24 20.5635 166.305 17.536 165.019 14.8123L157.807 19.067C157.947 19.406 158.088 19.745 158.239 19.9203C159.245 21.966 159.899 24.3156 160.039 26.9574C160.016 27.2847 160.145 27.7873 160.121 28.1146C160.261 30.7564 159.899 33.5268 159.197 36.4374C158.496 39.348 157.304 42.2236 155.959 44.9238C155.76 45.403 155.573 45.7186 155.211 46.1862C153.703 48.8747 151.891 51.2125 149.752 53.5269C149.401 53.8308 149.05 54.1347 148.863 54.4504C144.445 58.7402 139.278 61.9897 133.912 63.4156C133.573 63.5558 133.082 63.5207 132.743 63.661C131.574 63.9064 130.242 64.1402 129.096 64.0583C127.775 64.1284 126.63 64.0465 125.496 63.801C125.169 63.7776 124.841 63.7542 124.526 63.5672C119.827 62.5734 116.075 59.838 113.737 55.7232C113.597 55.3843 113.456 55.0453 113.304 54.8699C112.299 52.8242 111.645 50.4746 111.504 47.8328C111.528 47.5055 111.399 47.0029 111.423 46.6756C111.282 44.0338 111.645 41.2634 112.346 38.3528C113.048 35.4422 114.24 32.5666 115.748 29.8781C115.947 29.3989 116.134 29.0833 116.496 28.6157C118.004 25.9272 119.816 23.5894 121.956 21.275C122.306 20.9711 122.657 20.6672 122.844 20.3516C127.263 16.0617 132.43 12.8123 137.795 11.3864C138.134 11.2461 138.625 11.2812 138.964 11.1409C140.133 10.8955 141.466 10.6617 142.775 10.7553C144.096 10.6852 145.241 10.7671 146.375 11.0126C146.702 11.036 147.03 11.0594 147.345 11.2464C152.044 12.2402 155.797 14.9756 158.134 19.0904L165.347 14.8357C162.343 8.53502 156.732 4.18637 149.403 3.16914C147.942 2.90023 146.294 2.94694 144.809 3.00533C143.161 3.05203 141.501 3.26237 139.993 3.64807C131.974 5.37781 124.072 10.0767 117.829 16.868C115.164 19.6382 112.791 22.9229 110.734 26.3945C108.477 30.3455 106.701 34.4951 105.567 38.8552C104.117 43.0283 103.813 47.2832 104.035 51.0822Z" fill="url(#paint20_linear_1640_3541)"/>
<path d="M116.321 28.7678C116.134 29.0834 115.935 29.5627 115.573 30.0302L110.418 26.2076C112.476 22.7359 114.837 19.615 117.514 16.681L122.669 20.5036C122.318 20.8075 121.967 21.1115 121.78 21.4271C119.641 23.7415 117.829 26.0793 116.321 28.7678Z" fill="url(#paint21_linear_1640_3541)"/>
<path d="M142.599 10.9074C141.279 10.9775 140.121 11.0592 138.789 11.293C138.45 11.4332 137.959 11.3982 137.62 11.5384L139.677 3.46115C141.349 3.08715 142.845 2.8651 144.493 2.8184C146.142 2.7717 147.614 2.87696 149.087 2.98222L147.03 11.0595C146.702 11.0361 146.375 11.0127 146.06 10.8257C145.066 10.9191 143.757 10.8256 142.599 10.9074Z" fill="url(#paint22_linear_1640_3541)"/>
<path d="M111.504 47.8329C111.82 50.3227 112.299 52.8243 113.304 54.87C113.445 55.209 113.585 55.5479 113.737 55.7233L106.513 60.1416C105.227 57.4179 104.456 54.4021 104.035 51.0823L111.247 46.8276C111.388 47.1666 111.364 47.4939 111.504 47.8329Z" fill="url(#paint23_linear_1640_3541)"/>
<path d="M160.203 26.9691C159.888 24.4793 159.408 21.9777 158.403 19.9321C158.263 19.5931 158.123 19.2541 157.971 19.0787L165.183 14.8241C166.469 17.5477 167.24 20.5636 167.661 23.8834L160.285 28.1264C160.308 27.7991 160.332 27.4718 160.203 26.9691Z" fill="url(#paint24_linear_1640_3541)"/>
<path d="M131.867 71.3293C130.359 71.715 128.699 71.9253 127.051 71.972C125.402 72.0187 123.93 71.9135 122.457 71.8082L124.514 63.7309C124.842 63.7543 125.169 63.7777 125.485 63.9647C126.618 64.2103 127.776 64.1285 129.085 64.222C130.406 64.1519 131.563 64.0702 132.732 63.8247C133.071 63.6845 133.562 63.7196 133.901 63.5793L131.867 71.3293Z" fill="url(#paint25_linear_1640_3541)"/>
<path d="M155.375 46.198C155.573 45.7187 155.76 45.4031 156.123 44.9356L161.278 48.7582C159.22 52.2298 156.859 55.3508 154.182 58.2847L149.027 54.4621C149.378 54.1582 149.728 53.8543 149.915 53.5387C152.055 51.2243 153.878 48.7228 155.375 46.198Z" fill="url(#paint26_linear_1640_3541)"/>
<path d="M129.786 61.3114C128.629 61.3932 127.647 61.323 126.513 61.0775C121.463 60.3876 117.571 57.3132 115.572 53.0582C114.719 51.1879 114.053 49.0019 113.877 46.8511C113.574 44.1976 113.948 41.2636 114.649 38.353C115.362 35.2787 116.718 32.4148 118.226 29.7263C119.547 27.3534 121.348 25.1793 123.136 23.1688C127.578 18.5516 132.921 15.1502 138.426 14.0633C139.595 13.8179 140.589 13.7244 141.746 13.6426C142.903 13.5608 143.885 13.631 145.019 13.8765C150.069 14.5664 153.961 17.6408 155.96 21.8958C156.813 23.7661 157.479 25.9521 157.655 28.1029C157.959 30.7564 157.584 33.6904 156.883 36.601C156.17 39.6753 154.814 42.5392 153.306 45.2277C151.985 47.6006 150.184 49.7747 148.396 51.7852C143.954 56.4024 138.612 59.8038 133.106 60.8907C132.101 61.1478 130.943 61.2296 129.786 61.3114Z" fill="url(#paint27_linear_1640_3541)"/>
<path d="M114.59 69.1076C114.59 69.1076 114.905 69.2947 115.7 69.6804C115.864 69.6921 116.016 69.8675 116.331 70.0545C116.483 70.2299 116.811 70.2533 117.126 70.4403C117.605 70.639 118.248 70.8495 119.055 71.0716C119.382 71.095 119.862 71.2937 120.189 71.3171C120.516 71.3405 121.007 71.3756 121.498 71.4107C122.468 71.6445 123.45 71.7147 124.432 71.7848C124.923 71.8199 125.578 71.8667 126.08 71.7381C126.571 71.7732 127.226 71.82 127.728 71.6914C128.395 71.5746 128.886 71.6097 129.552 71.4928C130.218 71.3759 130.721 71.2474 131.387 71.1305C131.551 71.1422 131.715 71.1539 131.89 71.0019L132.393 70.8734C132.732 70.7331 133.059 70.7565 133.398 70.6162C134.064 70.4994 134.742 70.2188 135.408 70.102C136.086 69.8214 136.764 69.5409 137.431 69.4241C138.109 69.1435 138.787 68.863 139.465 68.5825C140.821 68.0215 142.2 67.1331 143.568 66.4084C144.783 65.5084 146.315 64.7954 147.542 63.7317C147.893 63.4278 148.232 63.2875 148.583 62.9836L149.097 62.6914L149.623 62.2355C150.324 61.6277 150.85 61.1718 151.552 60.564C152.089 59.9445 152.791 59.3367 153.329 58.7172C153.679 58.4133 153.866 58.0976 154.217 57.7937L155.105 56.8703L155.994 55.9469C156.345 55.643 156.532 55.3274 156.719 55.0118C156.941 54.2052 157.478 53.5857 158.028 52.8025C158.577 52.0193 159.115 51.3998 159.501 50.605L160.81 48.3957C162.505 45.3916 164.048 42.2122 165.1 38.9976C166.153 35.7831 166.889 32.3815 167.111 29.2722C167.17 28.4539 167.228 27.6356 167.287 26.8174C167.182 25.9874 167.24 25.1692 167.123 24.5029L167.158 24.0119L167.041 23.3456C167.065 23.0183 166.936 22.5157 166.96 22.1884C166.855 21.3584 166.738 20.6921 166.621 20.0258C166.504 19.3596 166.235 18.5179 166.118 17.8516C165.978 17.5126 166.001 17.1853 165.861 16.8463C165.721 16.5073 165.581 16.1683 165.44 15.8293C165.3 15.4903 165.16 15.1513 165.02 14.8123C164.879 14.4733 164.739 14.1343 164.587 13.959C164.283 13.6083 164.131 13.433 163.991 13.094C163.851 12.755 163.699 12.5796 163.558 12.2406C162.238 10.0079 160.379 8.39471 158.836 6.96856C157.118 5.69435 155.528 4.9228 154.09 4.32659C153.447 4.11616 152.805 3.90573 152.162 3.6953C151.519 3.48487 151.028 3.44978 150.712 3.26274C149.906 3.04062 149.415 3.00553 149.415 3.00553C149.415 3.00553 149.906 3.04062 150.712 3.26274C151.039 3.28613 151.682 3.49657 152.173 3.53165C152.816 3.74208 153.471 3.78886 154.102 4.16295C155.54 4.75915 157.293 5.5424 159.023 6.65295C160.741 7.92715 162.6 9.54036 164.084 11.7848C164.225 12.1238 164.54 12.3108 164.681 12.6498C164.821 12.9888 164.973 13.1641 165.277 13.5148C165.417 13.8538 165.557 14.1928 165.709 14.3682C165.499 15.0111 165.639 15.3501 165.779 15.6891C165.92 16.0281 166.06 16.3671 166.2 16.7061C166.34 17.0451 166.481 17.3841 166.621 17.7231C166.901 18.401 167.182 19.079 167.287 19.909C167.404 20.5753 167.673 21.4169 167.778 22.2469C167.755 22.5742 167.883 23.0768 167.86 23.4041L167.977 24.0704L167.93 24.725C168.035 25.555 167.977 26.3732 168.082 27.2032C168.023 28.0214 167.965 28.8397 167.906 29.6579C167.672 32.9309 166.936 36.3325 165.872 39.7107C164.82 42.9252 163.265 46.2683 161.57 49.2725L160.284 51.1544C159.735 51.9376 159.197 52.5571 158.811 53.3519C158.262 54.1351 157.724 54.7546 157.186 55.3741C156.836 55.6781 156.648 55.9937 156.286 56.4612L155.398 57.3847L154.509 58.3081C154.159 58.612 153.972 58.9276 153.621 59.2315C153.083 59.851 152.382 60.4588 151.844 61.0784C151.143 61.6862 150.617 62.142 149.915 62.7499L149.389 63.2057L148.875 63.498C148.524 63.8019 148.185 63.9421 147.834 64.246C146.607 65.3097 145.076 66.0227 143.86 66.9228C142.492 67.6475 141.113 68.5358 139.757 69.0968C139.079 69.3774 138.401 69.6579 137.723 69.9384C137.045 70.2189 136.367 70.4994 135.701 70.6163C135.023 70.8968 134.356 71.0137 133.69 71.1306C133.351 71.2708 133.024 71.2474 132.685 71.3877L132.007 71.6682C131.843 71.6565 131.679 71.6448 131.504 71.7968C130.849 71.75 130.347 71.8786 129.681 71.9954C129.014 72.1123 128.523 72.0772 127.857 72.1941C127.53 72.1707 127.191 72.311 127.027 72.2993C126.7 72.2759 126.372 72.2525 126.209 72.2408C125.718 72.2057 125.052 72.3226 124.572 72.1238C123.59 72.0537 122.445 71.9718 121.638 71.7497C121.147 71.7146 120.668 71.5159 120.341 71.4925C119.698 71.282 119.371 71.2586 118.891 71.0599C118.085 70.8378 117.442 70.6273 116.974 70.265C116.659 70.0779 116.495 70.0662 116.179 69.8792C116.027 69.7038 115.7 69.6804 115.548 69.5051C114.905 69.2947 114.59 69.1076 114.59 69.1076Z" fill="#DBDBDB"/>
</g>
<g clip-path="url(#clip1_1640_3541)">
<path d="M95.0645 140.552C98.2258 138.275 100.71 135.542 102.29 132.353C104.097 129.165 105 125.293 105 121.193C105 120.738 105 120.282 105 119.827C104.774 115.272 103.419 110.717 101.161 106.39C101.161 106.39 101.161 106.39 101.161 106.162C99.129 102.29 96.1935 98.1909 92.8064 94.7746C84.9032 86.5757 73.6129 79.5155 60.9677 75.416C58.4838 74.505 55.7742 73.8217 53.0645 73.3662C50.3548 72.9108 47.8709 72.4553 45.3871 72.2275C43.5806 71.9998 41.5483 71.9998 39.5161 71.9998C29.5806 71.9998 21 74.505 14.9032 78.8322C11.7419 81.1097 9.25803 83.8427 7.67739 87.0312C5.64513 90.6751 4.7419 94.7746 4.96771 99.3296C5.19352 103.885 6.54835 108.667 9.03222 112.995C11.0645 116.866 14 120.738 17.3871 124.382C25.2903 132.809 36.5806 139.869 49.2258 143.968C51.7096 144.879 54.4193 145.563 57.129 146.018C59.8387 146.474 62.3225 146.929 64.8064 147.157C77 148.296 87.8387 145.79 95.0645 140.552Z" fill="url(#paint28_linear_1640_3541)"/>
<path d="M90.5483 107.073C88.9677 104.112 86.7096 101.152 84.2258 98.4186C83.7742 97.9631 83.3225 97.5076 83.0967 97.2798L93.0322 95.2301C96.4193 98.8741 99.129 102.746 101.387 106.618L91.2258 108.44C91 107.984 90.7742 107.529 90.5483 107.073Z" fill="url(#paint29_linear_1640_3541)"/>
<path d="M45.6129 72.2274C48.0968 72.4552 50.8065 72.9107 53.2903 73.3662C56 73.8217 58.4839 74.5049 60.9678 75.4159L61.4194 83.8426C60.9678 83.8426 60.2903 83.6149 59.6129 83.3871C57.5807 82.7039 55.5484 82.2484 53.5161 81.7929C51.7097 81.3374 49.6774 81.1096 47.6452 80.8819C46.9678 80.8819 46.5161 80.8819 45.8387 80.6541L45.6129 72.2274Z" fill="url(#paint30_linear_1640_3541)"/>
<path d="M18.5161 92.2693C18.2903 92.4971 18.2903 92.9526 18.0645 93.4081L7.67737 87.0311C9.25801 83.8426 11.7419 81.1096 14.9032 78.8322L25.2903 85.2091C24.8387 85.4369 24.6129 85.6646 24.1612 85.8924C21.9032 87.7144 19.8709 89.7641 18.5161 92.2693Z" fill="url(#paint31_linear_1640_3541)"/>
<path d="M91.4516 127.343C91.6774 126.887 91.9032 126.659 91.9032 126.204L102.29 132.581C100.484 135.769 97.9999 138.502 95.0645 140.78L84.6774 134.403C85.129 134.175 85.3548 133.947 85.8064 133.72C88.2903 131.898 90.0967 129.62 91.4516 127.343Z" fill="url(#paint32_linear_1640_3541)"/>
<path d="M19.4193 112.311C20.9999 115.272 23.258 118.233 25.7419 120.966C26.1935 121.421 26.6451 121.877 26.8709 122.105L17.1612 124.382C13.7741 120.738 11.0645 116.866 8.8064 112.995L18.7419 110.945C18.9677 111.4 19.1935 111.856 19.4193 112.311Z" fill="url(#paint33_linear_1640_3541)"/>
<path d="M56.4516 137.591C58.4838 138.047 60.5161 138.275 62.3225 138.502C63 138.502 63.4516 138.502 64.129 138.73L64.5806 147.157C62.0967 146.929 59.387 146.474 56.9032 146.018C54.1935 145.563 51.7096 144.879 49.2257 143.968L48.7741 135.542C49.4516 135.769 49.9032 135.997 50.5806 136.225C52.387 136.68 54.4193 137.136 56.4516 137.591Z" fill="url(#paint34_linear_1640_3541)"/>
<path d="M102.29 132.581L97.3226 144.196C97.0967 144.652 96.8709 145.107 96.6451 145.335C96.6451 145.563 96.4193 145.563 96.4193 145.79C96.1935 146.018 95.9677 146.246 95.9677 146.474C95.9677 146.474 95.9677 146.474 95.9677 146.701L95.7419 146.929C95.5161 147.385 95.0645 147.612 94.8387 148.068C94.8387 148.296 94.6129 148.296 94.6129 148.296C94.1613 148.751 93.9355 149.207 93.4839 149.662L93.258 149.89C92.8064 150.118 92.5806 150.573 92.129 150.801C91.9032 150.801 91.9032 151.029 91.6774 151.029C91.2258 151.484 90.7742 151.712 90.3226 152.167C90.3226 152.167 90.3226 152.167 90.0968 152.167C89.6451 152.395 89.4193 152.623 88.9677 153.078C88.7419 153.078 88.7419 153.306 88.5161 153.306C88.2903 153.534 87.8387 153.762 87.6129 153.989C87.3871 153.989 87.3871 154.217 87.1613 154.217C86.7097 154.445 86.4838 154.673 86.0322 154.673C85.8064 154.673 85.8064 154.9 85.5806 154.9C85.129 155.128 84.6774 155.356 84 155.584C84 155.584 83.7742 155.584 83.7742 155.811C83.3226 156.039 82.8709 156.039 82.6451 156.267C82.4193 156.267 82.4193 156.495 82.1935 156.495C81.7419 156.722 81.2903 156.722 81.0645 156.95C80.8387 156.95 80.8387 156.95 80.6129 157.178H80.3871C80.1613 157.178 80.1613 157.178 79.9355 157.406C79.4839 157.633 79.0322 157.633 78.3548 157.861C78.129 157.861 77.9032 158.089 77.6774 158.089C77.2258 158.089 76.7742 158.316 76.3226 158.316C76.0968 158.316 75.8709 158.316 75.4193 158.544C74.9677 158.544 74.2903 158.772 73.8387 158.772C73.6129 158.772 73.3871 158.772 73.1613 158.772C72.4839 158.772 71.5806 159 70.9032 159C70.6774 159 70.4516 159 70.4516 159C69.7742 159 69.0968 159 68.6451 159.227C68.4193 159.227 67.9677 159.227 67.7419 159.227C67.2903 159.227 66.6129 159.227 66.1613 159.227C65.9355 159.227 65.4838 159.227 65.258 159.227C64.5806 159.227 64.129 159.227 63.4516 159.227C63.2258 159.227 63 159.227 62.5484 159.227C61.6451 159.227 60.7419 159.227 59.8387 159C57.3548 158.772 54.6451 158.316 52.1613 157.861C51.0322 157.633 50.129 157.406 49 157.178C48.7742 157.178 48.7742 157.178 48.7742 157.178H48.5484C48.0968 156.95 47.6451 156.95 47.1935 156.722C46.9677 156.722 46.7419 156.495 46.5161 156.495C45.8387 156.267 45.1613 156.039 44.4839 155.811C43.8064 155.584 42.9032 155.356 42.2258 155.128C42 155.128 42 154.9 41.7742 154.9C41.0968 154.673 40.6451 154.445 39.9677 154.217C39.7419 154.217 39.5161 153.989 39.5161 153.989C38.8387 153.762 38.3871 153.534 37.7097 153.306H37.4839C35.9032 152.623 34.5484 151.94 32.9677 151.256C32.7419 151.029 32.5161 151.029 32.2903 150.801C31.6129 150.573 31.1613 150.118 30.4839 149.89C30.258 149.662 30.0322 149.662 29.5806 149.434C29.129 149.207 28.4516 148.751 28 148.523C27.7742 148.296 27.5484 148.296 27.3226 148.068C26.6451 147.612 26.1935 147.385 25.5161 146.929C25.2903 146.929 25.2903 146.701 25.0645 146.701C24.3871 146.246 23.4839 145.563 22.8064 145.107C22.5806 144.879 22.3548 144.879 22.129 144.652C21.6774 144.196 21 143.741 20.5484 143.513C19.8709 142.83 19.6451 142.602 19.4193 142.602C18.9677 142.146 18.2903 141.691 17.8387 141.235C17.6129 141.008 17.6129 141.008 17.3871 140.78C16.4839 140.324 15.8064 139.641 15.129 138.958C14.9032 138.73 14.4516 138.275 14.2258 138.047C14 137.819 14 137.819 13.7742 137.591C13.3226 137.136 12.8709 136.68 12.1935 135.997C8.80643 132.353 6.09676 128.481 3.83869 124.61C1.58063 120.055 -1.88649e-05 115.5 -0.225825 110.945C-0.451632 107.073 0.225788 103.657 1.58063 100.468C2.70966 97.5076 4.0645 94.7746 5.19353 91.8139C5.87095 90.9029 6.32256 89.9919 6.77417 88.8531C5.41934 92.0416 4.74192 95.4579 4.96772 99.3296C5.19353 103.885 6.54837 108.667 9.03224 112.995C11.0645 116.866 13.7742 120.738 17.3871 124.382C17.8387 124.837 18.2903 125.293 18.9677 125.976C19.1935 126.204 19.1935 126.204 19.4193 126.432C19.8709 126.887 20.0968 127.115 20.5484 127.57C21.2258 128.254 21.9032 128.709 22.5806 129.392C22.8064 129.62 22.8064 129.62 23.0322 129.848C23.4839 130.303 24.1613 130.759 24.6129 131.214C24.8387 131.442 25.0645 131.67 25.2903 131.67C25.7419 132.125 26.4193 132.581 26.8709 132.809C27.0968 133.036 27.3226 133.036 27.5484 133.264C28.2258 133.72 29.129 134.403 29.8064 134.858C30.0322 134.858 30.0322 135.086 30.258 135.086C30.9355 135.542 31.3871 135.769 32.0645 136.225C32.2903 136.453 32.5161 136.453 32.9677 136.68C33.4193 136.908 34.0968 137.364 34.5484 137.591C34.7742 137.819 35 137.819 35.4516 138.047C35.9032 138.275 36.5806 138.73 37.0322 138.958C37.258 139.186 37.4839 139.186 37.7097 139.413C38.6129 139.869 39.2903 140.097 40.1935 140.552C42.4516 141.691 44.7097 142.602 46.9677 143.285C47.6451 143.513 48.5484 143.741 49.2258 143.968C49.9032 144.196 50.5806 144.424 51.258 144.652C51.4839 144.652 51.7097 144.879 51.9355 144.879C52.3871 145.107 52.8387 145.107 53.2903 145.335C53.5161 145.335 53.5161 145.335 53.7419 145.563C54.8709 145.79 55.7742 146.018 56.9032 146.246C59.6129 146.701 62.0968 147.157 64.5806 147.385C65.4839 147.385 66.3871 147.612 67.2903 147.612C67.5161 147.612 67.7419 147.612 68.1935 147.612C68.8709 147.612 69.3226 147.612 70 147.612H70.9032C71.5806 147.612 72.0322 147.612 72.4838 147.612C72.7097 147.612 72.9355 147.612 73.3871 147.612C74.0645 147.612 74.7419 147.612 75.4193 147.385C75.6451 147.385 75.6451 147.385 75.8709 147.385C76.5484 147.385 77.4516 147.157 78.129 147.157C78.3548 147.157 78.5806 147.157 78.8064 147.157C79.258 147.157 79.9355 146.929 80.3871 146.929C80.6129 146.929 80.8387 146.929 81.2903 146.701C81.7419 146.701 82.1935 146.474 82.6451 146.474C82.8709 146.474 83.0968 146.246 83.3226 146.246C83.7742 146.018 84.2258 146.018 84.9032 145.79C85.129 145.79 85.3548 145.563 85.5806 145.563C85.8064 145.563 85.8064 145.563 86.0322 145.335C86.4838 145.107 86.9355 145.107 87.1613 144.879C87.3871 144.879 87.3871 144.652 87.6129 144.652C88.0645 144.424 88.5161 144.424 88.7419 144.196C88.7419 144.196 88.9677 144.196 88.9677 143.968C89.4193 143.741 89.8709 143.513 90.5484 143.285C90.7742 143.285 90.7742 143.057 91 143.057C91.4516 142.83 91.6774 142.602 92.129 142.374C92.3548 142.374 92.3548 142.146 92.5806 142.146C93.0322 141.919 93.258 141.691 93.4839 141.463C93.7097 141.463 93.7097 141.235 93.9355 141.235C94.3871 141.008 94.8387 140.552 95.2903 140.324C95.7419 139.869 96.1935 139.641 96.6451 139.186C96.8709 139.186 96.8709 138.958 97.0968 138.958C97.5484 138.73 97.7742 138.275 98.2258 138.047L98.4516 137.819C98.9032 137.364 99.3548 136.908 99.5806 136.453C99.5806 136.225 99.8064 136.225 99.8064 136.225C100.032 135.769 100.484 135.542 100.71 135.086C100.71 134.858 100.935 134.858 100.935 134.631C101.161 134.403 101.387 134.175 101.387 133.947C101.387 133.72 101.613 133.72 101.613 133.492C101.839 133.264 102.064 133.036 102.29 132.581Z" fill="url(#paint35_linear_1640_3541)"/>
<path d="M96.6451 145.335C96.8709 144.879 97.0968 144.424 97.3226 144.196L102.29 132.581C102.064 133.036 101.839 133.492 101.613 133.72C101.613 133.947 101.387 133.947 101.387 134.175C101.161 134.403 100.935 134.631 100.935 134.858C100.935 135.086 100.71 135.086 100.71 135.314C100.484 135.769 100.032 135.997 99.8064 136.453L99.5806 136.68C99.129 137.136 98.9032 137.591 98.4516 138.047L98.2258 138.275C97.7742 138.73 97.5484 138.958 97.0968 139.186C96.871 139.186 96.8709 139.413 96.6451 139.413C96.1935 139.869 95.7419 140.097 95.2903 140.552L90.3226 152.167C90.7742 151.712 91.2258 151.484 91.6774 151.029C91.9032 151.029 91.9032 150.801 92.129 150.801C92.5806 150.573 92.8064 150.118 93.258 149.89L93.4839 149.662C93.9355 149.207 94.3871 148.751 94.6129 148.296L94.8387 148.068C95.0645 147.612 95.5161 147.385 95.7419 146.929L95.9677 146.701C95.9677 146.701 95.9677 146.701 95.9677 146.474C96.1935 146.246 96.4193 146.018 96.4193 145.79C96.6451 145.563 96.6451 145.563 96.6451 145.335Z" fill="url(#paint36_linear_1640_3541)"/>
<path d="M8.80646 112.995L3.83871 124.61C5.87097 128.481 8.80646 132.353 12.1936 135.997L17.1613 124.382C13.7742 120.966 11.0645 117.094 8.80646 112.995Z" fill="url(#paint37_linear_1640_3541)"/>
<path d="M56.6774 146.018C55.5484 145.79 54.6452 145.563 53.5161 145.335C53.2903 145.335 53.0645 145.335 53.0645 145.107C52.6129 144.879 52.1613 144.879 51.7097 144.652C51.4839 144.652 51.2581 144.652 51.0323 144.424C50.3548 144.196 49.6774 143.968 49 143.741L44.0323 155.356C44.7097 155.584 45.3871 155.811 46.0645 156.039C46.2903 156.039 46.5161 156.267 46.7419 156.267C47.1935 156.495 47.6452 156.495 48.0968 156.722H48.3226H48.5484C49.6774 156.95 50.5806 157.178 51.7097 157.406C54.4194 157.861 56.9032 158.317 59.3871 158.544L64.3548 146.929C61.871 146.929 59.3871 146.474 56.6774 146.018Z" fill="url(#paint38_linear_1640_3541)"/>
<path d="M93.4839 117.777C93.2581 114.589 92.5806 111.628 91 108.667C90.7742 108.44 90.7742 107.984 90.5484 107.756C90.5484 107.529 90.3226 107.301 90.3226 107.301C89.871 106.618 89.4193 105.934 89.1935 105.023C88.9677 104.796 88.9677 104.568 88.7419 104.34C87.3871 102.29 85.8064 100.241 84 98.4186C83.5484 97.9631 83.0968 97.5076 82.871 97.2799C77.2258 91.8139 69.7742 87.0312 61.4193 84.0705C60.9677 83.8427 60.2903 83.615 59.6129 83.3872C57.5806 82.704 55.5484 82.2485 53.5161 81.793C51.7097 81.3375 49.6774 81.1097 47.6451 80.882C46.9677 80.882 46.5161 80.882 45.8387 80.6542C37.7097 80.1987 30.4839 81.793 25.2903 85.2092C24.8387 85.437 24.6129 85.6647 24.1613 85.8925C21.9032 87.7144 19.871 89.7642 18.5161 92.2694C18.2903 92.4972 18.2903 92.9527 18.0645 93.4082C16.9355 95.9134 16.4839 98.6464 16.4839 101.835C16.7097 105.023 17.3871 107.984 18.9677 110.945C19.1935 111.4 19.4193 111.856 19.6451 112.311C21.2258 115.272 23.4839 118.233 25.9677 120.966C26.4193 121.421 26.871 121.877 27.0968 122.104C32.7419 127.57 40.1935 132.353 48.5484 135.314C49.2258 135.542 49.6774 135.769 50.3548 135.997C52.3871 136.68 54.4193 137.136 56.4516 137.591C58.4839 138.047 60.5161 138.275 62.3226 138.502C63 138.502 63.4516 138.502 64.129 138.73C72.258 139.186 79.4839 137.591 84.6774 134.403C85.129 134.175 85.3548 133.947 85.8064 133.72C88.2903 131.898 90.0968 129.848 91.4516 127.57C91.6774 127.115 91.9032 126.887 91.9032 126.432C93.0322 123.699 93.7097 120.738 93.4839 117.777Z" fill="url(#paint39_linear_1640_3541)"/>
<path d="M53.7419 84.2982C55.5484 84.7537 57.3548 85.2092 59.1613 85.6647C67.9677 88.3977 75.6451 93.4081 81.0645 99.1018C83.3226 101.607 85.3548 104.34 86.7097 106.845C88.2903 110.034 89.1935 113.222 89.4193 116.411C89.6451 119.599 88.9677 122.56 87.6129 125.065C86.4838 127.343 84.6774 129.165 82.6451 130.759C77.6774 134.403 70.2258 136.225 61.4193 135.314C59.6129 135.086 57.8064 134.858 56 134.403C54.1935 133.947 52.3871 133.492 50.5806 133.036C41.7742 130.303 34.0968 125.293 28.6774 119.599C26.4193 117.094 24.3871 114.361 23.0322 111.856C21.4516 108.44 20.5484 105.251 20.3226 102.063C20.3226 98.8741 21 96.1411 22.3548 93.6359C23.4839 91.3584 25.2903 89.5364 27.3226 87.9422C32.2903 84.2982 39.7419 82.4762 48.5484 83.3872C50.129 83.6149 51.9355 83.8427 53.7419 84.2982Z" fill="url(#paint40_linear_1640_3541)"/>
<path d="M77.9032 94.5469C77.9032 94.5469 78.129 94.5469 78.3548 94.5469C78.3548 94.5469 78.3548 94.5469 78.5806 94.5469C78.8064 94.5469 78.8064 94.5469 78.8064 94.7746C78.8064 94.7746 78.8064 94.7746 79.0322 94.7746C79.7096 95.4579 80.6129 96.1411 81.2903 96.8244C81.9677 97.5076 82.6451 98.1909 83.3225 98.8741C83.7742 99.3296 84.2258 99.7851 84.4516 100.241V100.468C84.4516 100.696 84.4516 100.924 84.2258 100.924H84H83.7742C83.5483 100.924 83.5484 100.924 83.3225 100.696L83.0967 100.468C82.8709 100.241 82.8709 100.241 82.6451 100.013C82.4193 99.7851 82.1935 99.5573 81.9677 99.3296C81.7419 99.1018 81.2903 98.6464 81.0645 98.4186C80.1613 97.5076 79.0322 96.5966 77.9032 95.6856C77.6774 95.0024 77.6774 94.7746 77.9032 94.5469Z" fill="url(#paint41_linear_1640_3541)"/>
<path d="M89.6452 127.798C88.7419 129.392 87.3871 130.759 86.0323 131.898C85.8065 132.125 85.5807 132.125 85.3549 131.898C85.129 131.898 84.9032 131.898 84.9032 131.67C84.4516 131.442 84.4516 130.987 84.6774 130.759C86.0323 129.62 87.1613 128.254 88.2903 126.887C88.5161 126.659 88.742 126.659 88.9678 126.659C88.9678 126.659 89.1936 126.659 89.1936 126.887C89.6452 127.115 89.871 127.57 89.6452 127.798Z" fill="url(#paint42_linear_1640_3541)"/>
<path d="M90.0967 112.084C90.0967 111.856 90.0967 111.856 90.0967 112.084C89.8709 111.856 89.8709 111.856 90.0967 112.084C89.8709 111.856 89.8709 111.856 89.6451 111.628C89.4193 110.945 89.1935 110.262 88.7419 109.351C88.5161 108.667 88.0645 107.984 87.8387 107.301C87.6129 107.073 87.6129 106.845 87.3871 106.618C87.1613 106.39 87.1613 106.162 86.9355 105.934C86.7096 105.707 86.9354 105.251 87.1613 105.251C87.1613 105.251 87.1613 105.251 87.3871 105.251H87.6129C87.6129 105.251 87.6129 105.251 87.8387 105.251L88.0645 105.479C88.2903 105.707 88.2903 105.934 88.5161 106.162C88.7419 106.39 88.7419 106.845 88.9677 107.073C89.4193 107.984 89.8709 108.667 90.0967 109.578C90.3226 110.262 90.5484 110.945 90.7742 111.4C90.7742 111.628 90.5484 111.856 90.0967 111.856H89.8709C90.3225 112.084 90.3226 112.084 90.0967 112.084Z" fill="url(#paint43_linear_1640_3541)"/>
<path d="M91.9032 123.016C91.9032 123.243 91.4516 123.471 91.2258 123.243C91.2258 123.243 91.2258 123.243 91 123.243C90.5484 123.016 90.3226 122.788 90.3226 122.332C90.7742 120.738 91 118.916 90.7742 117.094C90.7742 116.866 91.2258 116.639 91.6774 116.639C92.129 116.639 92.5806 117.094 92.5806 117.322C92.5806 119.372 92.3548 121.194 91.9032 123.016Z" fill="url(#paint44_linear_1640_3541)"/>
<path d="M64.8064 87.2589C64.3548 87.0311 64.129 86.5756 64.3548 86.3479C64.3548 86.1201 64.8064 86.1201 65.0322 86.1201H65.258C67.7419 87.2589 70.2258 88.3976 72.4838 89.9918C72.9355 90.2196 72.9355 90.6751 72.9355 90.9028C72.7097 91.1306 72.4839 91.1306 72.258 91.1306C72.0322 91.1306 72.0322 91.1306 71.8064 90.9028C69.5484 89.5363 67.2903 88.3976 64.8064 87.2589Z" fill="url(#paint45_linear_1640_3541)"/>
<path d="M57.5806 84.7537C56.2258 84.2982 55.0968 84.0705 53.7419 83.8427C52.3871 83.615 51.2581 83.3872 49.9032 83.1595C49.4516 83.1595 49.2258 82.704 49 82.4762C49 82.0208 49.2258 82.0208 49.6774 82.0208C51.0323 82.2485 52.3871 82.4762 53.7419 82.704C55.0968 82.9317 56.2258 83.3872 57.5806 83.615C58.0323 83.8427 58.4839 84.0705 58.2581 84.526C58.2581 84.7537 58.0323 84.7537 57.5806 84.7537Z" fill="url(#paint46_linear_1640_3541)"/>
<path d="M35.6774 83.6149C35.4516 83.6149 35.2258 83.3872 35 83.1594C34.7742 82.9317 34.7742 82.4762 35.2258 82.4762C37.4839 82.0207 39.7419 81.7929 42.2258 81.5652H42.4516C42.9032 81.5652 43.129 81.7929 43.3548 82.2484C43.5807 82.7039 43.3548 82.9317 42.9032 82.9317C40.4194 82.9317 38.3871 83.1594 36.129 83.8427C35.9032 83.6149 35.6774 83.6149 35.6774 83.6149Z" fill="url(#paint47_linear_1640_3541)"/>
<path d="M30.0322 84.7537C30.258 84.9815 30.258 85.437 30.0322 85.6647C28.6774 86.348 27.5484 87.0312 26.4193 87.7144C25.9677 87.9422 25.7419 88.1699 25.2903 88.6254C25.0645 88.8532 24.8387 88.8532 24.6129 88.6254C24.3871 88.6254 24.3871 88.6254 24.1613 88.3977C23.7097 88.1699 23.7097 87.7144 23.9355 87.4867C24.3871 87.259 24.6129 86.8035 25.0645 86.5757C26.1935 85.6647 27.5484 84.9815 28.9032 84.2982C29.129 84.2982 29.3548 84.2982 29.3548 84.2982C29.8064 84.526 30.0322 84.526 30.0322 84.7537Z" fill="url(#paint48_linear_1640_3541)"/>
<path d="M18.7419 97.2799C18.2903 97.2799 18.0645 96.8244 18.0645 96.5966C18.5161 95.2301 18.9677 94.0914 19.6452 92.7249C19.871 92.2694 20.0968 92.0416 20.3226 91.5861C20.3226 91.3584 20.7742 91.3584 21 91.3584C21 91.3584 21.2258 91.3584 21.4516 91.5861C21.6774 91.8139 21.9032 92.2694 21.6774 92.4971C21.4516 92.7249 21.4516 93.1804 21.2258 93.4081C20.5484 94.5469 20.0968 95.6856 19.871 97.0521C19.6452 97.2799 19.4194 97.5076 18.7419 97.2799C18.9677 97.5076 18.7419 97.5076 18.7419 97.2799Z" fill="url(#paint49_linear_1640_3541)"/>
<path d="M19.1935 102.29C19.1935 104.112 19.6451 105.934 20.3226 107.756C20.3226 108.212 20.0968 108.44 19.6451 108.44C19.6451 108.44 19.6451 108.44 19.4193 108.44C18.9677 108.44 18.7419 107.984 18.5161 107.756C18.0645 105.934 17.6129 103.885 17.6129 102.063C17.6129 101.835 17.8387 101.607 18.5161 101.607C18.7419 101.607 19.1935 102.063 19.1935 102.29Z" fill="url(#paint50_linear_1640_3541)"/>
<path d="M80.3871 133.947C80.6129 133.947 80.8387 134.175 81.0645 134.175C81.2903 134.403 81.2903 134.858 81.0645 135.086C79.258 135.997 77.2258 136.68 74.9677 137.136C74.7419 137.136 74.7419 137.136 74.5161 137.136C74.2903 137.136 73.8387 136.908 73.8387 136.68C73.6129 136.453 73.6129 135.997 74.0645 135.997C76.0967 135.542 78.129 134.858 79.9354 134.175C79.9354 133.947 80.1612 133.947 80.3871 133.947Z" fill="url(#paint51_linear_1640_3541)"/>
<path d="M22.8064 113.45C23.9355 115.272 25.2903 117.094 26.8709 118.916C27.0968 119.144 27.0968 119.599 26.6451 119.827C26.4193 119.827 26.4193 119.827 26.1935 119.827C25.9677 119.827 25.7419 119.599 25.5161 119.371C23.9355 117.549 22.5806 115.727 21.4516 113.678C21.2258 113.45 21.4516 112.995 21.9032 112.995H22.129C22.3548 112.995 22.5806 113.222 22.8064 113.45Z" fill="url(#paint52_linear_1640_3541)"/>
<path d="M67.5161 136.68C67.9677 136.68 68.1935 136.908 68.4193 137.364C68.6451 137.591 68.4193 138.047 67.9677 138.047C66.1612 138.047 64.129 138.047 62.3225 137.819C61.6451 137.819 61.1935 137.591 60.5161 137.591C60.0645 137.591 59.8387 137.136 59.6129 136.908C59.6129 136.68 59.8387 136.453 60.2903 136.453C60.9677 136.453 61.4193 136.68 62.0967 136.68C63.9032 136.908 65.7096 136.908 67.5161 136.908C67.2903 136.68 67.5161 136.68 67.5161 136.68Z" fill="url(#paint53_linear_1640_3541)"/>
<path d="M38.1613 128.481C38.6129 128.709 38.6129 129.165 38.6129 129.392C38.3871 129.62 38.1613 129.62 37.9355 129.62C37.7097 129.62 37.7097 129.62 37.4839 129.392C35.2258 128.026 32.9677 126.432 30.9355 124.837C30.4839 124.61 30.4839 124.154 30.9355 123.926C31.1613 123.926 31.3871 123.699 31.6129 123.926C31.8387 123.926 32.0645 124.154 32.0645 124.154C33.871 125.748 35.9032 127.115 38.1613 128.481Z" fill="url(#paint54_linear_1640_3541)"/>
<path d="M52.6128 134.858C53.0645 135.086 53.5161 135.314 53.2903 135.769C53.2903 135.997 52.8387 136.225 52.387 136.225C51.7096 135.997 51.0322 135.769 50.3548 135.542C48.3225 134.858 46.5161 134.175 44.4838 133.264C44.0322 133.036 43.8064 132.581 43.8064 132.353C43.8064 132.125 44.258 132.125 44.4838 132.125H44.7096C46.5161 132.809 48.3225 133.72 50.129 134.175C51.258 134.403 51.9354 134.631 52.6128 134.858Z" fill="url(#paint55_linear_1640_3541)"/>
<path d="M7.6774 87.0311C7.45159 87.4866 7.22578 87.9421 6.99998 88.6254C6.77417 89.0809 6.54836 89.5364 6.32256 90.2196C6.09675 90.6751 5.87094 91.1306 5.87094 91.8139C5.64514 92.2693 5.64514 92.9526 5.41933 93.4081C5.41933 93.8636 5.19353 94.5468 5.19353 95.0023C5.19353 95.4578 4.96772 96.1411 4.96772 96.5966C4.96772 97.0521 4.96772 97.7353 4.96772 98.1908C4.96772 98.6463 4.96772 99.3296 4.96772 99.7851C4.96772 100.241 4.96772 100.924 5.19353 101.379C5.19353 101.835 5.41933 102.518 5.41933 102.974C5.64514 103.429 5.64514 104.112 5.87094 104.568C6.09675 105.023 6.09675 105.707 6.32256 106.162C6.54836 106.618 6.54836 107.301 6.77417 107.756C6.99998 108.212 7.22578 108.895 7.45159 109.351C7.6774 109.806 7.9032 110.489 8.12901 110.945L9.25804 112.994L9.48385 113.45H9.03224L9.25804 112.994L10.1613 114.589L10.6129 115.272C10.8387 115.5 10.8387 115.727 11.0645 115.955L11.9677 117.322L12.4193 118.005C12.6451 118.233 12.6451 118.46 12.8709 118.688L14 120.055C14.4516 120.51 14.6774 120.966 15.129 121.421L17.3871 123.926L16.9355 123.699H17.1613L17.3871 123.926L18.9677 125.521C19.4193 125.976 20.0968 126.659 20.5484 127.115L22.5806 128.937C23.258 129.392 23.7097 130.076 24.3871 130.531L26.1935 131.898C26.8709 132.353 27.3226 132.809 28 133.264L30.0322 134.631C30.7097 135.086 31.3871 135.542 32.0645 135.769L34.0967 136.908C34.7742 137.364 35.4516 137.819 36.129 138.047L38.1613 139.186C38.8387 139.413 39.5161 139.869 40.1935 140.097L42.4516 141.008C43.129 141.235 43.8064 141.691 44.7096 141.919L49 143.513L48.3226 143.968V143.285L49 143.513L52.8387 144.652L56.6774 145.563C56.9032 145.563 57.3548 145.79 57.5806 145.79L58.4838 146.018L60.5161 146.474C61.8709 146.701 63 146.701 64.3548 146.929H64.8064V147.385L64.3548 146.929L68.1935 147.157C68.8709 147.157 69.5484 147.157 70.2258 147.157H72.258H73.1613H74.0645L76.0967 146.929C76.7742 146.929 77.4516 146.929 78.129 146.701L80.1613 146.474C80.8387 146.246 81.5161 146.246 82.1935 146.018L84 145.563C84.6774 145.335 85.3548 145.335 85.8064 145.107L87.6129 144.424L88.5161 144.196L89.4193 143.741L91.2258 142.83C91.9032 142.602 92.3548 142.146 93.0322 141.919L94.6129 140.78V141.008L94.8387 140.552L95.0645 140.324L97.3225 138.73C97.7742 138.502 98 138.047 98.2258 137.819L99.129 136.908C99.3548 136.68 99.3548 136.453 99.5806 136.453L100.032 135.997L100.935 134.858C101.161 134.403 101.387 134.175 101.613 133.72L102.29 132.581L101.613 133.72C101.387 134.175 101.161 134.403 100.935 134.858L100.032 135.997L99.5806 136.453C99.3548 136.68 99.3548 136.908 99.129 136.908L98.2258 138.047C98 138.275 97.5484 138.73 97.3225 138.958L95.2903 140.78V140.552L95.5161 140.78L95.2903 141.008L93.7096 142.146C93.0322 142.602 92.5806 142.83 91.9032 143.285L90.0967 144.196L89.1935 144.652H88.0645L86.258 145.335C85.5806 145.563 84.9032 145.79 84.4516 146.018L82.4193 146.474C81.7419 146.701 81.0645 146.701 80.3871 146.929L78.3548 147.385C77.6774 147.612 77 147.612 76.3225 147.612L74.5161 147.84H73.6129H72.7096H70.6774C70 147.84 69.3225 147.84 68.6451 147.84L64.5806 147.612H64.129V147.157L64.5806 147.612C63.2258 147.385 61.8709 147.385 60.5161 147.157L58.4838 146.701L57.5806 146.474C57.3548 146.474 56.9032 146.474 56.6774 146.246L52.8387 145.335L49 144.196L49.6774 143.741V144.652L49 144.424L44.4838 142.83C43.8064 142.602 43.129 142.146 42.2258 141.919L39.9677 141.008C39.2903 140.78 38.6129 140.324 37.9355 139.869L35.9032 138.73C35.2258 138.502 34.5484 138.047 33.8709 137.591L31.6129 136.68C30.9355 136.225 30.258 135.769 29.5806 135.314L27.5484 133.947C26.8709 133.492 26.1935 133.036 25.7419 132.581L23.7097 131.214C23.0322 130.759 22.5806 130.303 21.9032 129.62L20.0967 128.026C19.4193 127.57 18.9677 126.887 18.2903 126.432L16.7097 124.837L17.1613 125.065H16.9355L16.7097 124.837L14.4516 122.104C14 121.649 13.7742 121.193 13.3226 120.738L12.1935 119.371C11.9677 119.144 11.9677 118.916 11.7419 118.688L11.2903 117.777L10.3871 116.183C10.1613 115.955 10.1613 115.727 9.93546 115.5L9.48385 114.816L8.58062 113.222L8.35482 112.767L8.80643 112.539L8.58062 113.222L7.9032 111.628C7.6774 111.172 7.45159 110.489 7.22578 110.034C6.99998 109.578 6.77417 108.895 6.54836 108.44C6.32256 107.984 6.09675 107.301 6.09675 106.845C5.87095 106.39 5.87095 105.707 5.64514 105.251C5.41933 104.796 5.41933 104.112 5.19353 103.657C4.96772 103.201 4.96772 102.518 4.96772 102.063C4.96772 101.379 4.74191 100.924 4.74191 100.468C4.74191 100.013 4.74191 99.3296 4.74191 98.6463C4.74191 97.9631 4.74191 97.5076 4.74191 96.8243C4.74191 96.1411 4.74191 95.6856 4.96772 95.2301C4.96772 94.7746 5.19353 94.0913 5.19353 93.6358C5.19353 93.1803 5.41933 92.4971 5.64514 92.0416C5.87095 91.5861 6.09675 90.9029 6.09675 90.4474C6.32256 89.5364 6.54836 89.0809 6.77417 88.6254C6.99998 87.9421 7.45159 87.4866 7.6774 87.0311Z" fill="#DBDBDB"/>
</g>
<defs>
<linearGradient id="paint0_linear_1640_3541" x1="167.977" y1="70.6997" x2="107.134" y2="7.78591" gradientUnits="userSpaceOnUse">
<stop stop-color="#660000"/>
<stop offset="1" stop-color="#FF0000"/>
</linearGradient>
<linearGradient id="paint1_linear_1640_3541" x1="89.5866" y1="29.8661" x2="150.621" y2="89.999" gradientUnits="userSpaceOnUse">
<stop stop-color="#D9D9D9"/>
<stop offset="1" stop-color="white"/>
</linearGradient>
<linearGradient id="paint2_linear_1640_3541" x1="114.557" y1="4.52164" x2="175.586" y2="64.6493" gradientUnits="userSpaceOnUse">
<stop stop-color="#D9D9D9"/>
<stop offset="1" stop-color="white"/>
</linearGradient>
<linearGradient id="paint3_linear_1640_3541" x1="128.014" y1="-9.14767" x2="189.061" y2="50.9974" gradientUnits="userSpaceOnUse">
<stop stop-color="#D9D9D9"/>
<stop offset="1" stop-color="white"/>
</linearGradient>
<linearGradient id="paint4_linear_1640_3541" x1="126.293" y1="-7.3994" x2="187.338" y2="52.7436" gradientUnits="userSpaceOnUse">
<stop stop-color="#D9D9D9"/>
<stop offset="1" stop-color="white"/>
</linearGradient>
<linearGradient id="paint5_linear_1640_3541" x1="106.525" y1="12.6546" x2="167.6" y2="72.8269" gradientUnits="userSpaceOnUse">
<stop stop-color="#D9D9D9"/>
<stop offset="1" stop-color="white"/>
</linearGradient>
<linearGradient id="paint6_linear_1640_3541" x1="98.8985" y1="20.4239" x2="159.929" y2="80.5524" gradientUnits="userSpaceOnUse">
<stop stop-color="#D9D9D9"/>
<stop offset="1" stop-color="white"/>
</linearGradient>
<linearGradient id="paint7_linear_1640_3541" x1="89.5911" y1="29.8462" x2="150.642" y2="89.9951" gradientUnits="userSpaceOnUse">
<stop stop-color="#D9D9D9"/>
<stop offset="1" stop-color="white"/>
</linearGradient>
<linearGradient id="paint8_linear_1640_3541" x1="92.847" y1="26.5552" x2="153.882" y2="86.6892" gradientUnits="userSpaceOnUse">
<stop stop-color="#D9D9D9"/>
<stop offset="1" stop-color="white"/>
</linearGradient>
<linearGradient id="paint9_linear_1640_3541" x1="114.585" y1="4.48798" x2="175.626" y2="64.6275" gradientUnits="userSpaceOnUse">
<stop stop-color="#D9D9D9"/>
<stop offset="1" stop-color="white"/>
</linearGradient>
<linearGradient id="paint10_linear_1640_3541" x1="126.284" y1="-7.38335" x2="187.321" y2="52.7518" gradientUnits="userSpaceOnUse">
<stop stop-color="#D9D9D9"/>
<stop offset="1" stop-color="white"/>
</linearGradient>
<linearGradient id="paint11_linear_1640_3541" x1="121.539" y1="-2.57112" x2="182.581" y2="57.5692" gradientUnits="userSpaceOnUse">
<stop stop-color="#D9D9D9"/>
<stop offset="1" stop-color="white"/>
</linearGradient>
<linearGradient id="paint12_linear_1640_3541" x1="98.8476" y1="20.4603" x2="159.89" y2="80.6013" gradientUnits="userSpaceOnUse">
<stop stop-color="#D9D9D9"/>
<stop offset="1" stop-color="white"/>
</linearGradient>
<linearGradient id="paint13_linear_1640_3541" x1="121.562" y1="-2.59441" x2="182.604" y2="57.5456" gradientUnits="userSpaceOnUse">
<stop stop-color="#D9D9D9"/>
<stop offset="1" stop-color="white"/>
</linearGradient>
<linearGradient id="paint14_linear_1640_3541" x1="92.8872" y1="26.5017" x2="153.936" y2="86.6482" gradientUnits="userSpaceOnUse">
<stop stop-color="#D9D9D9"/>
<stop offset="1" stop-color="white"/>
</linearGradient>
<linearGradient id="paint15_linear_1640_3541" x1="106.571" y1="12.6355" x2="167.602" y2="72.7644" gradientUnits="userSpaceOnUse">
<stop stop-color="#D9D9D9"/>
<stop offset="1" stop-color="white"/>
</linearGradient>
<linearGradient id="paint16_linear_1640_3541" x1="196.827" y1="89.3327" x2="129.245" y2="31.5148" gradientUnits="userSpaceOnUse">
<stop stop-color="#610000"/>
<stop offset="1" stop-color="#BE0000"/>
</linearGradient>
<linearGradient id="paint17_linear_1640_3541" x1="177.822" y1="25.8808" x2="165.984" y2="20.1044" gradientUnits="userSpaceOnUse">
<stop stop-color="#858585"/>
<stop offset="1" stop-color="#D9D9D9"/>
</linearGradient>
<linearGradient id="paint18_linear_1640_3541" x1="137.454" y1="80.0233" x2="124.81" y2="69.3204" gradientUnits="userSpaceOnUse">
<stop stop-color="#858585"/>
<stop offset="1" stop-color="#D9D9D9"/>
</linearGradient>
<linearGradient id="paint19_linear_1640_3541" x1="171.58" y1="64.7119" x2="152.436" y2="48.9874" gradientUnits="userSpaceOnUse">
<stop stop-color="#858585"/>
<stop offset="1" stop-color="#D9D9D9"/>
</linearGradient>
<linearGradient id="paint20_linear_1640_3541" x1="102.613" y1="-10.1381" x2="159.533" y2="71.4194" gradientUnits="userSpaceOnUse">
<stop stop-color="#660000"/>
<stop offset="1" stop-color="#FF0000"/>
</linearGradient>
<linearGradient id="paint21_linear_1640_3541" x1="110.613" y1="18.2235" x2="129.851" y2="34.7382" gradientUnits="userSpaceOnUse">
<stop stop-color="#D9D9D9"/>
<stop offset="1" stop-color="white"/>
</linearGradient>
<linearGradient id="paint22_linear_1640_3541" x1="145.147" y1="-0.125762" x2="139.335" y2="25.455" gradientUnits="userSpaceOnUse">
<stop stop-color="#D9D9D9"/>
<stop offset="1" stop-color="white"/>
</linearGradient>
<linearGradient id="paint23_linear_1640_3541" x1="100.13" y1="58.764" x2="119.458" y2="47.0277" gradientUnits="userSpaceOnUse">
<stop stop-color="#D9D9D9"/>
<stop offset="1" stop-color="white"/>
</linearGradient>
<linearGradient id="paint24_linear_1640_3541" x1="167.968" y1="18.6678" x2="146.315" y2="30.3676" gradientUnits="userSpaceOnUse">
<stop stop-color="#D9D9D9"/>
<stop offset="1" stop-color="white"/>
</linearGradient>
<linearGradient id="paint25_linear_1640_3541" x1="127.256" y1="73.6325" x2="129.437" y2="59.8439" gradientUnits="userSpaceOnUse">
<stop stop-color="#D9D9D9"/>
<stop offset="1" stop-color="white"/>
</linearGradient>
<linearGradient id="paint26_linear_1640_3541" x1="159.757" y1="55.5689" x2="146.429" y2="44.1581" gradientUnits="userSpaceOnUse">
<stop stop-color="#D9D9D9"/>
<stop offset="1" stop-color="white"/>
</linearGradient>
<linearGradient id="paint27_linear_1640_3541" x1="119.419" y1="20.938" x2="167.503" y2="69.3437" gradientUnits="userSpaceOnUse">
<stop stop-color="#D9D9D9"/>
<stop offset="1" stop-color="white"/>
</linearGradient>
<linearGradient id="paint28_linear_1640_3541" x1="169.168" y1="109.187" x2="-39.2062" y2="110.195" gradientUnits="userSpaceOnUse">
<stop/>
<stop offset="1" stop-color="#454545"/>
</linearGradient>
<linearGradient id="paint29_linear_1640_3541" x1="100.168" y1="98.0011" x2="79.5969" y2="107.383" gradientUnits="userSpaceOnUse">
<stop stop-color="#D9D9D9"/>
<stop offset="1" stop-color="white"/>
</linearGradient>
<linearGradient id="paint30_linear_1640_3541" x1="53.3515" y1="73.3657" x2="53.6295" y2="82.8811" gradientUnits="userSpaceOnUse">
<stop stop-color="#D9D9D9"/>
<stop offset="1" stop-color="white"/>
</linearGradient>
<linearGradient id="paint31_linear_1640_3541" x1="10.4309" y1="81.454" x2="23.2265" y2="91.1392" gradientUnits="userSpaceOnUse">
<stop stop-color="#D9D9D9"/>
<stop offset="1" stop-color="white"/>
</linearGradient>
<linearGradient id="paint32_linear_1640_3541" x1="100.112" y1="138.016" x2="82.3751" y2="125.747" gradientUnits="userSpaceOnUse">
<stop stop-color="#D9D9D9"/>
<stop offset="1" stop-color="white"/>
</linearGradient>
<linearGradient id="paint33_linear_1640_3541" x1="11.1731" y1="120.011" x2="34.5942" y2="112.27" gradientUnits="userSpaceOnUse">
<stop stop-color="#D9D9D9"/>
<stop offset="1" stop-color="white"/>
</linearGradient>
<linearGradient id="paint34_linear_1640_3541" x1="55.3103" y1="146.853" x2="60.5916" y2="123.429" gradientUnits="userSpaceOnUse">
<stop stop-color="#D9D9D9"/>
<stop offset="1" stop-color="white"/>
</linearGradient>
<linearGradient id="paint35_linear_1640_3541" x1="33.3324" y1="170.367" x2="52.9073" y2="115.033" gradientUnits="userSpaceOnUse">
<stop stop-color="#454545"/>
<stop offset="1"/>
</linearGradient>
<linearGradient id="paint36_linear_1640_3541" x1="92.9552" y1="151.518" x2="99.0628" y2="134.864" gradientUnits="userSpaceOnUse">
<stop stop-color="#858585"/>
<stop offset="1" stop-color="#D9D9D9"/>
</linearGradient>
<linearGradient id="paint37_linear_1640_3541" x1="5.6822" y1="133.148" x2="17.5924" y2="112.688" gradientUnits="userSpaceOnUse">
<stop stop-color="#858585"/>
<stop offset="1" stop-color="#D9D9D9"/>
</linearGradient>
<linearGradient id="paint38_linear_1640_3541" x1="51.1422" y1="160.69" x2="59.7502" y2="135.636" gradientUnits="userSpaceOnUse">
<stop stop-color="#858585"/>
<stop offset="1" stop-color="#D9D9D9"/>
</linearGradient>
<linearGradient id="paint39_linear_1640_3541" x1="-9.40982" y1="88.9466" x2="187.589" y2="151.473" gradientUnits="userSpaceOnUse">
<stop/>
<stop offset="1" stop-color="#454545"/>
</linearGradient>
<linearGradient id="paint40_linear_1640_3541" x1="121.724" y1="131.248" x2="-3.795" y2="90.7159" gradientUnits="userSpaceOnUse">
<stop stop-color="#D9D9D9"/>
<stop offset="1" stop-color="white"/>
</linearGradient>
<linearGradient id="paint41_linear_1640_3541" x1="119.36" y1="117.297" x2="-17.0964" y2="48.3241" gradientUnits="userSpaceOnUse">
<stop stop-color="#D9D9D9"/>
<stop offset="1" stop-color="white"/>
</linearGradient>
<linearGradient id="paint42_linear_1640_3541" x1="107.833" y1="140.098" x2="-28.6143" y2="71.1299" gradientUnits="userSpaceOnUse">
<stop stop-color="#D9D9D9"/>
<stop offset="1" stop-color="white"/>
</linearGradient>
<linearGradient id="paint43_linear_1640_3541" x1="116.589" y1="122.791" x2="-19.8923" y2="53.8057" gradientUnits="userSpaceOnUse">
<stop stop-color="#D9D9D9"/>
<stop offset="1" stop-color="white"/>
</linearGradient>
<linearGradient id="paint44_linear_1640_3541" x1="112.502" y1="130.866" x2="-23.9586" y2="61.8907" gradientUnits="userSpaceOnUse">
<stop stop-color="#D9D9D9"/>
<stop offset="1" stop-color="white"/>
</linearGradient>
<linearGradient id="paint45_linear_1640_3541" x1="120.395" y1="115.247" x2="-16.0591" y2="46.2752" gradientUnits="userSpaceOnUse">
<stop stop-color="#D9D9D9"/>
<stop offset="1" stop-color="white"/>
</linearGradient>
<linearGradient id="paint46_linear_1640_3541" x1="119.437" y1="117.161" x2="-17.034" y2="48.181" gradientUnits="userSpaceOnUse">
<stop stop-color="#D9D9D9"/>
<stop offset="1" stop-color="white"/>
</linearGradient>
<linearGradient id="paint47_linear_1640_3541" x1="116.709" y1="122.535" x2="-19.7445" y2="53.5634" gradientUnits="userSpaceOnUse">
<stop stop-color="#D9D9D9"/>
<stop offset="1" stop-color="white"/>
</linearGradient>
<linearGradient id="paint48_linear_1640_3541" x1="112.687" y1="130.52" x2="-23.785" y2="61.5396" gradientUnits="userSpaceOnUse">
<stop stop-color="#D9D9D9"/>
<stop offset="1" stop-color="white"/>
</linearGradient>
<linearGradient id="paint49_linear_1640_3541" x1="108.027" y1="139.712" x2="-28.4277" y2="70.7402" gradientUnits="userSpaceOnUse">
<stop stop-color="#D9D9D9"/>
<stop offset="1" stop-color="white"/>
</linearGradient>
<linearGradient id="paint50_linear_1640_3541" x1="103.566" y1="148.537" x2="-32.887" y2="79.5657" gradientUnits="userSpaceOnUse">
<stop stop-color="#D9D9D9"/>
<stop offset="1" stop-color="white"/>
</linearGradient>
<linearGradient id="paint51_linear_1640_3541" x1="103.396" y1="148.876" x2="-33.0541" y2="79.9064" gradientUnits="userSpaceOnUse">
<stop stop-color="#D9D9D9"/>
<stop offset="1" stop-color="white"/>
</linearGradient>
<linearGradient id="paint52_linear_1640_3541" x1="100.061" y1="155.466" x2="-36.3878" y2="86.4968" gradientUnits="userSpaceOnUse">
<stop stop-color="#D9D9D9"/>
<stop offset="1" stop-color="white"/>
</linearGradient>
<linearGradient id="paint53_linear_1640_3541" x1="99.95" y1="155.7" x2="-36.5107" y2="86.7251" gradientUnits="userSpaceOnUse">
<stop stop-color="#D9D9D9"/>
<stop offset="1" stop-color="white"/>
</linearGradient>
<linearGradient id="paint54_linear_1640_3541" x1="98.1233" y1="159.304" x2="-38.3273" y2="90.3345" gradientUnits="userSpaceOnUse">
<stop stop-color="#D9D9D9"/>
<stop offset="1" stop-color="white"/>
</linearGradient>
<linearGradient id="paint55_linear_1640_3541" x1="98.0873" y1="159.389" x2="-38.3777" y2="90.412" gradientUnits="userSpaceOnUse">
<stop stop-color="#D9D9D9"/>
<stop offset="1" stop-color="white"/>
</linearGradient>
<clipPath id="clip0_1640_3541">
<rect width="69.0726" height="75.1431" fill="white" transform="translate(170.897 79.8756) rotate(-175.912)"/>
</clipPath>
<clipPath id="clip1_1640_3541">
<rect width="105" height="87" fill="white" transform="translate(0 71.9998)"/>
</clipPath>
</defs>
</svg>
