<svg width="26" height="24" viewBox="0 0 26 24" fill="none" xmlns="http://www.w3.org/2000/svg">
<path fill-rule="evenodd" clip-rule="evenodd" d="M17.6262 23.0404C17.2357 22.6498 17.2357 22.0167 17.6262 21.6261L23.5858 15.6666L17.6262 9.70703C17.2357 9.3165 17.2357 8.68334 17.6262 8.29281C18.0167 7.90229 18.6499 7.90229 19.0404 8.29281L25.7071 14.9595C26.0976 15.35 26.0976 15.9832 25.7071 16.3737L19.0404 23.0404C18.6499 23.4309 18.0168 23.4309 17.6262 23.0404Z" fill="black"/>
<path fill-rule="evenodd" clip-rule="evenodd" d="M26 15.6665C26 16.2188 25.5523 16.6665 25 16.6665L14.3333 16.6665C6.41705 16.6665 -5.60996e-07 10.2495 -1.25306e-06 2.33317L-1.36962e-06 0.999839C-1.41791e-06 0.447554 0.447712 -0.000161798 0.999999 -0.000161846C1.55228 -0.000161895 2 0.447554 2 0.999839L2 2.33317C2 9.14489 7.52162 14.6665 14.3333 14.6665L25 14.6665C25.5523 14.6665 26 15.1142 26 15.6665Z" fill="black"/>
</svg>
