<svg width="22" height="22" viewBox="0 0 22 22" fill="none" xmlns="http://www.w3.org/2000/svg">
<path d="M15.5197 4.65002L12.4197 2.25002C12.0197 1.85002 11.1197 1.65002 10.5197 1.65002H6.71973C5.51973 1.65002 4.21973 2.55002 3.91973 3.75002L1.51973 11.05C1.01973 12.45 1.91973 13.65 3.41973 13.65H7.41973C8.01973 13.65 8.51973 14.15 8.41973 14.85L7.91973 18.05C7.71973 18.95 8.31973 19.95 9.21973 20.25C10.0197 20.55 11.0197 20.15 11.4197 19.55L15.5197 13.45" stroke="#6B6B6B" stroke-width="1.5" stroke-miterlimit="10"/>
<path d="M20.6201 4.65V14.45C20.6201 15.85 20.0201 16.35 18.6201 16.35H17.6201C16.2201 16.35 15.6201 15.85 15.6201 14.45V4.65C15.6201 3.25 16.2201 2.75 17.6201 2.75H18.6201C20.0201 2.75 20.6201 3.25 20.6201 4.65Z" stroke="#6B6B6B" stroke-width="1.5" stroke-linecap="round" stroke-linejoin="round"/>
</svg>
