<svg width="14" height="14" viewBox="0 0 14 14" fill="none" xmlns="http://www.w3.org/2000/svg">
<path d="M5.00024 5.91992C5.87653 5.91992 6.58691 5.20954 6.58691 4.33325C6.58691 3.45696 5.87653 2.74658 5.00024 2.74658C4.12395 2.74658 3.41357 3.45696 3.41357 4.33325C3.41357 5.20954 4.12395 5.91992 5.00024 5.91992Z" fill="#424341"/>
<path d="M9.7935 0.333252H4.20683C1.78016 0.333252 0.333496 1.77992 0.333496 4.20658V9.79325C0.333496 10.5199 0.460163 11.1533 0.706829 11.6866C1.28016 12.9533 2.50683 13.6666 4.20683 13.6666H9.7935C12.2202 13.6666 13.6668 12.2199 13.6668 9.79325V8.26658V4.20658C13.6668 1.77992 12.2202 0.333252 9.7935 0.333252ZM12.5802 7.33325C12.0602 6.88658 11.2202 6.88658 10.7002 7.33325L7.92683 9.71325C7.40683 10.1599 6.56683 10.1599 6.04683 9.71325L5.82016 9.52658C5.34683 9.11325 4.5935 9.07325 4.06016 9.43325L1.56683 11.1066C1.42016 10.7333 1.3335 10.2999 1.3335 9.79325V4.20658C1.3335 2.32659 2.32683 1.33325 4.20683 1.33325H9.7935C11.6735 1.33325 12.6668 2.32659 12.6668 4.20658V7.40658L12.5802 7.33325Z" fill="#424341"/>
</svg>
