<svg width="22" height="21" viewBox="0 0 22 21" fill="none" xmlns="http://www.w3.org/2000/svg">
<path d="M19.1818 0C20.2727 0 21 0.210301 21.3636 0.630904C21.7879 0.991418 22 1.6824 22 2.70386V8.02146C21.9394 9.64378 21.7879 11.206 21.5455 12.7082C21.303 14.2103 20.9394 15.6524 20.4545 17.0343C20.0303 18.4163 19.4848 19.7382 18.8182 21L15.1818 20.0086C15.4848 18.2661 15.697 16.6738 15.8182 15.2318C16 13.7296 16.0909 11.9571 16.0909 9.91416C14.6364 9.91416 13.9091 9.13305 13.9091 7.57082V2.70386C13.9697 1.6824 14.2424 0.991418 14.7273 0.630904C15.2121 0.210301 15.9394 0 16.9091 0H19.1818ZM5.27273 0C6.36364 0 7.09091 0.210301 7.45455 0.630904C7.87879 0.991418 8.09091 1.6824 8.09091 2.70386V8.02146C8.0303 9.64378 7.87879 11.206 7.63636 12.7082C7.39394 14.2103 7.0303 15.6524 6.54545 17.0343C6.12121 18.4163 5.57576 19.7382 4.90909 21L1.27273 20.0086C1.57576 18.2661 1.78788 16.6738 1.90909 15.2318C2.09091 13.7296 2.18182 11.9571 2.18182 9.91416C0.727273 9.91416 0 9.13305 0 7.57082V2.70386C0.060606 1.6824 0.333333 0.991418 0.818182 0.630904C1.30303 0.210301 2.0303 0 3 0H5.27273Z" fill="#242621"/>
</svg>
