<svg width="48" height="32" viewBox="0 0 48 32" fill="none" xmlns="http://www.w3.org/2000/svg">
<g clip-path="url(#clip0_1866_33936)">
<path d="M42.2559 31.9998C42.1727 31.9998 42.0936 31.9998 42.019 31.9964C40.3597 31.9447 38.7333 31.5123 37.2614 30.7316C33.1711 28.5477 28.6201 27.4066 24 27.4066C19.3798 27.4066 14.8289 28.5477 10.7385 30.7316C9.32028 31.4911 7.64348 31.92 6.01649 31.9388C4.44029 31.9555 3.06133 31.5867 2.23381 30.9218C1.19951 30.0908 0.515795 28.6869 0.201479 26.7487C-0.0594067 25.1392 -0.0669925 23.1944 0.179051 20.9675C0.652669 16.6875 2.04252 11.8308 3.89676 7.97533C5.76154 4.09571 7.81664 1.68913 10.1801 0.618801C11.2758 0.118664 12.4804 -0.0842043 13.6762 0.0299835C14.7276 0.12689 15.787 0.445777 16.9153 1.00576C19.6373 2.30444 27.8293 2.28969 31.1268 0.986308C32.2403 0.4384 33.2878 0.125549 34.3261 0.0299835C35.5219 -0.0840658 36.7264 0.118797 37.8221 0.618801C40.1856 1.68913 42.2417 4.09571 44.1058 7.97566C45.9999 11.917 47.3535 16.5323 47.8199 20.6379C48.1939 23.9294 48.1652 28.3623 45.9069 30.791C44.9501 31.8194 43.2961 31.9998 42.2559 31.9998Z" fill="#EFF5FA"/>
<path d="M42.2559 32C42.1727 32 42.0936 32 42.019 31.9967C40.3597 31.9449 38.7333 31.5125 37.2614 30.7318C33.1711 28.5479 28.6201 27.4068 24 27.4068C19.3798 27.4068 14.8289 28.5479 10.7385 30.7318C9.32028 31.4913 7.64348 31.9202 6.01649 31.939C4.44029 31.9557 3.06133 31.5869 2.23381 30.922C1.19951 30.091 0.515795 28.6871 0.201479 26.7489C-0.0594067 25.1394 -0.0669925 23.1946 0.179051 20.9677C0.652669 16.6877 2.04252 11.831 3.89676 7.97553C5.76154 4.09591 7.81664 1.68934 10.1801 0.619007C11.2758 0.11887 12.4804 -0.0839983 13.6762 0.0301895C14.7276 0.127096 15.787 0.445983 16.9153 1.00596C19.6373 2.30465 27.8293 2.28989 31.1268 0.986514C32.2403 0.438606 33.2878 0.125755 34.3261 0.0301895C35.5219 -0.0838598 36.7264 0.119003 37.8221 0.619007C40.1856 1.68934 42.2417 4.09591 44.1058 7.97587C45.9999 11.9172 47.3535 16.5325 47.8199 20.6381C48.1939 23.9296 48.1652 28.3625 45.9069 30.7912C44.9501 31.8196 43.2961 32 42.2559 32ZM24.0001 24.7236C29.0491 24.7209 34.0228 25.9682 38.4913 28.3578C39.5669 28.9342 40.8776 29.2826 42.0863 29.3145C43.3509 29.348 43.9089 29.0331 43.9887 28.9456C45.1886 27.6556 45.6296 24.7391 45.1985 20.9436C44.7651 17.128 43.5026 12.8289 41.7354 9.15116C40.1757 5.90595 38.4979 3.85884 36.7489 3.06682C35.39 2.45118 33.9563 2.56385 32.237 3.4179L32.1915 3.44037L32.1446 3.45914C30.3198 4.19684 27.2218 4.64315 23.857 4.65388C22.2102 4.65891 18.1267 4.55027 15.7824 3.42595L15.7652 3.42025C14.0456 2.56519 12.6119 2.45353 11.2533 3.06917C9.50464 3.86152 7.82686 5.90864 6.26649 9.15417C4.53792 12.7488 3.24207 17.2772 2.80044 21.2685C2.58441 23.2207 2.58573 24.9654 2.8044 26.3137C3.00229 27.5363 3.38059 28.4262 3.86872 28.8175C4.06661 28.9758 4.7622 29.2715 5.98615 29.2571C7.20252 29.243 8.45319 28.9241 9.50827 28.3591C13.9769 25.9691 18.9509 24.7216 24.0001 24.7243V24.7236Z" fill="#A6B1B8"/>
<path d="M18.2057 15.6838C18.204 15.8334 18.144 15.9761 18.0389 16.0808C17.9338 16.1854 17.7922 16.2434 17.6451 16.2421H14.9561V19.043C14.9553 19.1171 14.9402 19.1904 14.9117 19.2585C14.8831 19.3267 14.8416 19.3885 14.7895 19.4404C14.7374 19.4923 14.6758 19.5332 14.6082 19.5609C14.5406 19.5885 14.4683 19.6024 14.3954 19.6016H12.4933C12.3461 19.603 12.2045 19.5449 12.0993 19.4402C11.9942 19.3355 11.9343 19.1926 11.9326 19.043V16.2421H9.24526C9.09812 16.2434 8.95649 16.1853 8.85139 16.0806C8.7463 15.9758 8.68631 15.8331 8.68457 15.6835V13.7886C8.68631 13.639 8.74631 13.4963 8.85141 13.3916C8.95652 13.287 9.09815 13.2289 9.24526 13.2303H11.9329V10.4284C11.9346 10.2788 11.9946 10.1359 12.0997 10.0312C12.2048 9.92645 12.3465 9.86839 12.4936 9.86973H14.3957C14.4686 9.86893 14.5409 9.88276 14.6086 9.91041C14.6762 9.93806 14.7379 9.979 14.7899 10.0309C14.842 10.0828 14.8835 10.1446 14.9121 10.2128C14.9406 10.281 14.9557 10.3542 14.9564 10.4284V13.2299H17.6451C17.7922 13.2286 17.9338 13.2866 18.0389 13.3913C18.144 13.4959 18.204 13.6387 18.2057 13.7882V15.6838Z" fill="#A4D007"/>
<path d="M30.3357 16.2528C29.9965 16.2528 29.6649 16.1506 29.3828 15.959C29.1008 15.7674 28.881 15.4951 28.7512 15.1764C28.6213 14.8578 28.5874 14.5072 28.6536 14.169C28.7197 13.8308 28.8831 13.5201 29.1229 13.2762C29.3628 13.0324 29.6684 12.8663 30.0011 12.799C30.3338 12.7318 30.6786 12.7663 30.992 12.8983C31.3054 13.0302 31.5732 13.2537 31.7617 13.5405C31.9501 13.8272 32.0507 14.1643 32.0507 14.5092C32.0507 14.9716 31.87 15.4151 31.5484 15.7421C31.2267 16.0691 30.7905 16.2528 30.3357 16.2528Z" fill="#FC6D0B"/>
<path d="M33.8723 19.8474C33.5331 19.8474 33.2015 19.7452 32.9194 19.5536C32.6374 19.362 32.4176 19.0897 32.2878 18.771C32.158 18.4524 32.124 18.1018 32.1902 17.7636C32.2564 17.4254 32.4197 17.1147 32.6596 16.8708C32.8994 16.627 33.205 16.4609 33.5377 16.3936C33.8704 16.3264 34.2152 16.3609 34.5286 16.4929C34.842 16.6248 35.1098 16.8483 35.2983 17.1351C35.4867 17.4218 35.5873 17.7589 35.5873 18.1038C35.5873 18.5662 35.4066 19.0097 35.085 19.3367C34.7634 19.6637 34.3271 19.8474 33.8723 19.8474Z" fill="#FC6D0B"/>
<path d="M33.8723 12.6579C33.5331 12.6579 33.2015 12.5556 32.9194 12.364C32.6374 12.1724 32.4176 11.9001 32.2878 11.5815C32.158 11.2629 32.124 10.9123 32.1902 10.5741C32.2564 10.2358 32.4197 9.92515 32.6596 9.6813C32.8994 9.43744 33.205 9.27138 33.5377 9.2041C33.8704 9.13682 34.2152 9.17135 34.5286 9.30332C34.842 9.43529 35.1098 9.65878 35.2983 9.94552C35.4867 10.2323 35.5873 10.5694 35.5873 10.9142C35.5873 11.3767 35.4066 11.8202 35.085 12.1472C34.7634 12.4742 34.3271 12.6579 33.8723 12.6579Z" fill="#FC6D0B"/>
<path d="M37.4133 16.2528C37.0741 16.2528 36.7425 16.1506 36.4605 15.959C36.1784 15.7674 35.9586 15.4951 35.8288 15.1764C35.699 14.8578 35.665 14.5072 35.7312 14.169C35.7974 13.8308 35.9607 13.5201 36.2006 13.2762C36.4404 13.0324 36.746 12.8663 37.0787 12.799C37.4114 12.7318 37.7562 12.7663 38.0696 12.8983C38.383 13.0302 38.6509 13.2537 38.8393 13.5405C39.0278 13.8272 39.1283 14.1643 39.1283 14.5092C39.1283 14.9716 38.9477 15.4151 38.626 15.7421C38.3044 16.0691 37.8682 16.2528 37.4133 16.2528Z" fill="#FC6D0B"/>
</g>
<defs>
<clipPath id="clip0_1866_33936">
<rect width="48" height="32" fill="white"/>
</clipPath>
</defs>
</svg>
