<svg width="64" height="64" viewBox="0 0 64 64" fill="none" xmlns="http://www.w3.org/2000/svg">
<path d="M6.88013 50.6933L6.8268 50.7467C6.1068 49.1733 5.65346 47.3867 5.4668 45.4133C5.65346 47.36 6.16013 49.12 6.88013 50.6933Z" fill="#424341"/>
<path d="M24 27.6799C27.5052 27.6799 30.3467 24.8384 30.3467 21.3332C30.3467 17.8281 27.5052 14.9866 24 14.9866C20.4948 14.9866 17.6533 17.8281 17.6533 21.3332C17.6533 24.8384 20.4948 27.6799 24 27.6799Z" fill="#424341"/>
<path d="M43.173 5.33325H20.8263C11.1197 5.33325 5.33301 11.1199 5.33301 20.8266V43.1733C5.33301 46.0799 5.83967 48.6133 6.82634 50.7466C9.11967 55.8133 14.0263 58.6666 20.8263 58.6666H43.173C52.8797 58.6666 58.6663 52.8799 58.6663 43.1733V37.0666V20.8266C58.6663 11.1199 52.8797 5.33325 43.173 5.33325ZM54.3197 33.3333C52.2397 31.5466 48.8797 31.5466 46.7997 33.3333L35.7063 42.8532C33.6263 44.6399 30.2663 44.6399 28.1863 42.8532L27.2797 42.1066C25.3863 40.4533 22.373 40.2932 20.2397 41.7332L10.2663 48.4266C9.67967 46.9333 9.33301 45.1999 9.33301 43.1733V20.8266C9.33301 13.3066 13.3063 9.33325 20.8263 9.33325H43.173C50.693 9.33325 54.6663 13.3066 54.6663 20.8266V33.6266L54.3197 33.3333Z" fill="#424341"/>
</svg>
